# Blender v3.3.1 OBJ File: ''
# www.blender.org
o Cube
v 1.122967 -0.449149 -0.436123
v 0.331412 -1.622805 0.509342
v 1.907853 2.890184 0.250023
v -0.022100 1.295119 2.206317
v 0.015275 2.030455 -2.867635
v -1.209599 -1.132053 -0.667285
v 0.149346 6.512655 -0.563359
v -2.714872 3.183245 0.466796
v -0.439094 -1.377429 -0.078971
v 0.432269 1.313364 -0.097894
v -0.792605 0.231574 1.055109
v 0.785780 -0.295639 -1.231974
v 0.943849 -1.081910 -0.067159
v -0.950673 1.017845 -0.109706
v 0.590337 0.527093 1.066920
v -0.597162 -0.591158 -1.243786
v 0.173343 -0.836534 -0.655473
v -0.180168 0.772469 0.478607
v -1.386355 -0.327551 -0.100244
v 1.379530 0.263487 -0.076621
v -0.161481 0.754239 -1.253247
v 0.154656 -0.818304 1.076382
v -0.615849 -0.572927 0.488068
v 0.609024 0.508863 -0.664934
v 0.767093 -0.277408 0.499880
v -0.773917 0.213343 -0.676745
vt 0.750000 0.625000
vt 0.875000 0.625000
vt 0.875000 0.750000
vt 0.750000 0.750000
vt 0.500000 0.875000
vt 0.625000 0.875000
vt 0.625000 1.000000
vt 0.500000 1.000000
vt 0.500000 0.125000
vt 0.625000 0.125000
vt 0.625000 0.250000
vt 0.500000 0.250000
vt 0.250000 0.625000
vt 0.375000 0.625000
vt 0.375000 0.750000
vt 0.250000 0.750000
vt 0.500000 0.625000
vt 0.625000 0.625000
vt 0.625000 0.750000
vt 0.500000 0.750000
vt 0.500000 0.375000
vt 0.625000 0.375000
vt 0.625000 0.500000
vt 0.500000 0.500000
vt 0.125000 0.625000
vt 0.125000 0.750000
vt 0.375000 0.875000
vt 0.375000 0.250000
vt 0.375000 0.375000
vt 0.375000 0.500000
vt 0.375000 0.125000
vt 0.375000 1.000000
vt 0.375000 0.000000
vt 0.500000 0.000000
vt 0.750000 0.500000
vt 0.125000 0.500000
vt 0.250000 0.500000
vt 0.625000 0.000000
vt 0.875000 0.500000
vn 0.8717 0.0749 -0.4842
vn -0.0471 0.1810 0.9824
vn -0.9479 0.3063 -0.0874
vn -0.5382 -0.4715 0.6986
vn 0.7746 -0.2326 0.5882
vn 0.4215 -0.7241 -0.5460
vn 0.1351 -0.6006 -0.7880
vn -0.7218 -0.4002 0.5646
vn -0.5860 0.6325 0.5065
vn 0.2626 0.2179 -0.9400
vn -0.1992 0.9429 -0.2670
vn 0.1768 -0.8045 -0.5670
vn 0.7731 -0.2463 0.5845
vn -0.7705 0.2454 -0.5883
vn 0.6398 0.6745 0.3685
vn -0.3699 0.1133 -0.9221
vn 0.7705 -0.2454 0.5883
vn 0.7861 0.2915 -0.5451
vn -0.6124 -0.5409 0.5765
vn 0.8785 -0.2818 0.3857
vn -0.8022 0.1281 -0.5831
vn 0.7150 0.6503 0.2565
s off
f 24/1/1 21/2/1 7/3/1 10/4/1
f 18/5/2 10/6/2 7/7/2 14/8/2
f 26/9/3 21/10/3 5/11/3 16/12/3
f 23/13/4 22/14/4 4/15/4 11/16/4
f 25/17/5 20/18/5 3/19/5 15/20/5
f 17/21/6 12/22/6 1/23/6 13/24/6
f 16/12/7 5/11/7 12/22/7 17/21/7
f 19/25/8 23/13/8 11/16/8 8/26/8
f 15/20/9 3/19/9 10/6/9 18/5/9
f 20/18/10 24/1/10 10/4/10 3/19/10
f 4/15/11 15/20/11 18/5/11 11/27/11
f 6/28/12 16/12/12 17/21/12 9/29/12
f 9/29/12 17/21/12 13/24/12 2/30/12
f 22/14/13 25/17/13 15/20/13 4/15/13
f 19/31/14 26/9/14 16/12/14 6/28/14
f 11/27/15 18/5/15 14/8/15 8/32/15
f 8/33/16 14/34/16 26/9/16 19/31/16
f 2/30/17 13/24/17 25/17/17 22/14/17
f 1/23/18 12/35/18 24/1/18 20/18/18
f 6/36/19 9/37/19 23/13/19 19/25/19
f 13/24/20 1/23/20 20/18/20 25/17/20
f 9/37/19 2/30/19 22/14/19 23/13/19
f 14/34/21 7/38/21 21/10/21 26/9/21
f 12/35/22 5/39/22 21/2/22 24/1/22
