# vertices
v 0 0 0
v 0 0 24
v 0 1 24
v 0 1 0
v 24 1 24
v 24 0 24
v 24 0 0
v 24 1 0
v 0 23 24
v 0 23 0
v 1 23 24
v 1 1 24
v 1 1 0
v 1 23 0
v 23 1 0
v 23 1 24
v 23 23 24
v 23 23 0
v 24 23 24
v 24 23 0
v 1 1 1
v 1 23 1
v 8 23 1
v 8 1 1
v 8 1 0
v 8 23 0
v 1 1 23
v 1 23 23
v 23 1 23
v 23 23 23
v 16 1 0
v 16 1 1
v 16 23 1
v 16 23 0
v 23 23 1
v 23 1 1
v 8 16 0
v 8 16 1
v 16 16 1
v 16 16 0
v 8 8 1
v 8 8 0
v 16 8 1
v 16 8 0
v 8 16 -15
v 8 17 0
v 8 17 -15
v 16 17 0
v 16 16 -15
v 16 17 -15
v 8 7 -15
v 8 7 0
v 8 8 -15
v 16 7 0
v 16 7 -15
v 16 8 -15
v 17 17 0
v 17 7 0
v 17 7 -15
v 17 17 -15
v 7 7 -15
v 7 7 0
v 7 17 0
v 7 17 -15
v 16 1 -16
v 16 1 -15
v 16 23 -15
v 16 23 -16
v 23 23 -15
v 23 1 -15
v 23 1 -16
v 23 23 -16
v 8 16 -16
v 8 23 -15
v 8 23 -16
v 16 16 -16
v 1 1 -16
v 1 1 -15
v 1 23 -15
v 1 23 -16
v 8 1 -15
v 8 1 -16
v 8 8 -16
v 16 8 -16
v 0 23 -39
v 0 23 -31
v 0 24 -31
v 0 24 -39
v 24 24 -31
v 24 23 -31
v 24 23 -39
v 24 24 -39
v 0 1 -39
v 0 1 -15
v 0 23 -15
v 1 1 -39
v 1 23 -39
v 23 1 -39
v 23 23 -39
v 24 23 -15
v 24 1 -15
v 24 1 -39
v 0 0 -39
v 0 0 -15
v 24 0 -15
v 24 0 -39
v 1 1 -38
v 1 23 -38
v 23 23 -38
v 23 1 -38
v 0 23 -23
v 0 24 -15
v 0 24 -23
v 24 24 -15
v 24 23 -23
v 24 24 -23
v 16 23 -31
v 16 23 -23
v 16 24 -23
v 16 24 -31
v 8 24 -23
v 8 23 -23
v 8 23 -31
v 8 24 -31
v 8 24 -32
v 8 54 -31
v 8 54 -32
v 16 54 -31
v 16 24 -32
v 16 54 -32
v 16 24 -22
v 16 54 -22
v 17 54 -22
v 17 24 -22
v 17 24 -32
v 17 54 -32
v 7 24 -32
v 7 24 -22
v 7 54 -22
v 7 54 -32
v 8 54 -22
v 8 24 -22
v 8 54 -23
v 16 54 -23
v 0 54 -23
v 0 54 -15
v 0 55 -15
v 0 55 -23
v 24 55 -15
v 24 54 -15
v 24 54 -23
v 24 55 -23
v 0 54 -31
v 0 55 -31
v 8 55 -23
v 8 55 -31
v 0 54 -39
v 0 55 -39
v 24 55 -31
v 24 54 -31
v 24 54 -39
v 24 55 -39
v 16 55 -23
v 16 55 -31
v 0 99 -15
v 0 99 -39
v 1 99 -15
v 1 55 -15
v 1 55 -39
v 1 99 -39
v 23 55 -39
v 23 55 -15
v 23 77 -15
v 23 77 -39
v 24 77 -15
v 24 77 -39
v 1 55 -38
v 1 99 -38
v 23 99 -38
v 23 55 -38
v 23 99 -39
v 1 55 -16
v 1 99 -16
v 23 99 -15
v 23 55 -16
v 23 99 -16
v 0 100 -15
v 0 100 -39
v 24 100 -15
v 24 99 -15
v 24 99 -39
v 24 100 -39
v 23 92 -31
v 23 92 -23
v 23 99 -23
v 23 99 -31
v 24 99 -23
v 24 92 -23
v 24 92 -31
v 24 99 -31
v 23 77 -31
v 24 77 -31
v 23 77 -23
v 23 84 -23
v 23 84 -31
v 24 84 -23
v 24 77 -23
v 24 84 -31
v 24 83 -23
v 24 83 -22
v 24 93 -22
v 24 93 -23
v 39 93 -22
v 39 83 -22
v 39 83 -23
v 39 93 -23
v 24 93 -31
v 39 92 -23
v 39 92 -31
v 39 93 -31
v 24 83 -32
v 24 83 -31
v 24 93 -32
v 39 83 -31
v 39 83 -32
v 39 93 -32
v 39 84 -23
v 39 84 -31
v 0 23 16
v 0 24 24
v 0 24 16
v 24 24 24
v 24 23 16
v 24 24 16
v 0 23 8
v 0 24 8
v 8 24 16
v 8 23 16
v 8 23 8
v 8 24 8
v 16 23 8
v 16 23 16
v 16 24 16
v 16 24 8
v 24 23 8
v 24 24 8
v 0 24 0
v 24 24 0
v 7 24 7
v 7 24 17
v 7 39 17
v 7 39 7
v 8 39 17
v 8 24 17
v 8 24 7
v 8 39 7
v 8 39 16
v 16 39 17
v 16 24 17
v 16 39 16
v 16 24 7
v 16 39 7
v 17 39 17
v 17 24 17
v 17 24 7
v 17 39 7
v 8 39 8
v 16 39 8
v 0 39 0
v 0 39 8
v 0 40 8
v 0 40 0
v 24 40 8
v 24 39 8
v 24 39 0
v 24 40 0
v 16 40 16
v 16 40 8
v 24 40 16
v 24 39 16
v 0 39 16
v 0 39 24
v 0 40 24
v 0 40 16
v 24 40 24
v 24 39 24
v 8 40 16
v 8 40 8
v 23 40 0
v 23 40 24
v 23 62 24
v 23 62 0
v 24 62 24
v 24 62 0
v -21 40 23
v -21 40 24
v -21 62 24
v -21 62 23
v 23 40 23
v 23 62 23
v -22 62 0
v -22 62 24
v -22 63 24
v -22 63 0
v 24 63 24
v 24 63 0
v 1 40 0
v 1 40 1
v 1 62 1
v 1 62 0
v 23 62 1
v 23 40 1
v -22 55 8
v -22 55 16
v -22 62 16
v -22 62 8
v -21 62 16
v -21 55 16
v -21 55 8
v -21 62 8
v -22 40 16
v -22 40 24
v -21 40 16
v -22 40 8
v -22 47 16
v -22 47 8
v -21 47 16
v -21 40 8
v -21 47 8
v -22 40 0
v -21 40 0
v -21 62 0
v -21 40 1
v -21 62 1
v -22 39 0
v -22 39 24
v 8 -19 -31
v 8 -19 -23
v 8 -11 -23
v 8 -11 -31
v 16 -11 -23
v 16 -19 -23
v 16 -19 -31
v 16 -11 -31

# texture coordinates
vt 0 0
vt 24 0
vt 24 1
vt 0 1
vt -24 -24
vt 0 -24
vt -24 0
vt 24 -24
vt -24 1
vt 24 23
vt 0 23
vt 1 23
vt 1 1
vt -1 -24
vt -1 0
vt 1 0
vt 1 -24
vt -1 1
vt -1 23
vt -24 23
vt 23 23
vt 23 1
vt -23 -24
vt -23 0
vt 23 0
vt 23 -24
vt -23 1
vt -23 23
vt 8 23
vt 8 1
vt -8 -1
vt -1 -1
vt -8 0
vt 8 0
vt 1 -1
vt 8 -1
vt -8 1
vt -8 23
vt -1 -23
vt -23 -23
vt 23 -23
vt 1 -23
vt 16 23
vt 16 1
vt -23 -1
vt -16 -1
vt -16 0
vt 16 0
vt 16 -1
vt 23 -1
vt -16 1
vt -16 23
vt 0 16
vt 1 16
vt 8 16
vt 16 16
vt -16 16
vt -8 16
vt -1 16
vt 1 8
vt 0 8
vt 16 8
vt 8 8
vt -8 8
vt -16 8
vt -1 8
vt -15 16
vt 0 17
vt -15 17
vt 16 17
vt 8 17
vt -8 15
vt -16 15
vt 16 15
vt 8 15
vt -8 17
vt -16 17
vt 15 17
vt 15 16
vt -15 7
vt 0 7
vt -15 8
vt 8 7
vt 16 7
vt -16 7
vt -8 7
vt 15 8
vt 15 7
vt 17 17
vt 17 7
vt -17 0
vt -17 15
vt 17 15
vt 17 0
vt -17 7
vt -17 17
vt 7 17
vt 7 7
vt -7 0
vt -7 15
vt 7 15
vt 7 0
vt -7 7
vt -7 17
vt -15 1
vt -15 23
vt -23 15
vt -23 16
vt 23 16
vt 23 15
vt 15 23
vt 15 1
vt -1 15
vt 1 15
vt -39 23
vt -31 23
vt -31 24
vt -39 24
vt 24 24
vt 0 24
vt -24 31
vt 0 31
vt 0 39
vt -24 39
vt 24 39
vt 24 31
vt -24 24
vt 39 24
vt 31 24
vt 31 23
vt 39 23
vt -39 1
vt 0 15
vt -1 39
vt 1 39
vt 39 1
vt -24 15
vt -23 39
vt 23 39
vt 24 15
vt -39 0
vt -15 0
vt 15 0
vt 39 0
vt -38 1
vt -38 23
vt -23 38
vt -1 38
vt 1 38
vt 23 38
vt 38 23
vt 38 1
vt -15 24
vt -23 24
vt 23 24
vt 15 24
vt 16 24
vt -16 31
vt 16 31
vt -16 24
vt 8 24
vt -8 31
vt 8 31
vt -8 24
vt 24 32
vt 54 31
vt 54 32
vt -16 -54
vt -8 -54
vt -8 -24
vt -16 -24
vt -8 32
vt -16 32
vt 16 32
vt 8 32
vt 16 -24
vt 8 -24
vt 8 -54
vt 16 -54
vt -54 32
vt -54 31
vt -24 32
vt 24 22
vt 54 22
vt -17 -54
vt -17 -24
vt -17 22
vt -16 22
vt -17 32
vt 17 32
vt 16 22
vt 17 22
vt 17 -24
vt 17 -54
vt -54 22
vt -24 22
vt -7 -54
vt -7 -24
vt -8 22
vt -7 22
vt -7 32
vt 7 32
vt 7 22
vt 8 22
vt 7 -24
vt 7 -54
vt 54 23
vt -54 23
vt -23 54
vt -15 54
vt -15 55
vt -23 55
vt 24 55
vt 0 55
vt 0 54
vt 24 54
vt -24 54
vt -24 55
vt 23 55
vt 15 55
vt 15 54
vt 23 54
vt -31 54
vt -31 55
vt 8 55
vt 8 54
vt -8 54
vt -8 55
vt 31 55
vt 31 54
vt -39 54
vt -39 55
vt 39 55
vt 39 54
vt 16 55
vt 16 54
vt -16 54
vt -16 55
vt -15 99
vt -39 99
vt 1 99
vt 0 99
vt 1 55
vt -1 55
vt -1 99
vt 39 99
vt 15 99
vt -15 77
vt -39 77
vt 24 77
vt 23 77
vt -23 77
vt -24 77
vt 39 77
vt 15 77
vt -38 55
vt -38 99
vt 23 99
vt -23 99
vt 38 99
vt 38 55
vt -16 99
vt 16 99
vt -15 100
vt -39 100
vt 24 100
vt 0 100
vt 24 99
vt -24 99
vt -24 100
vt 39 100
vt 15 100
vt -31 92
vt -23 92
vt -31 99
vt 23 92
vt 24 92
vt -24 92
vt 31 99
vt 31 92
vt -31 77
vt 31 77
vt -23 84
vt -31 84
vt 24 84
vt 23 84
vt -24 84
vt 31 84
vt -23 83
vt -22 83
vt -22 93
vt -23 93
vt 39 93
vt 24 93
vt 24 83
vt 39 83
vt -22 -39
vt -22 -24
vt -23 -39
vt 23 -39
vt 22 -24
vt 22 -39
vt -39 83
vt -24 83
vt -24 93
vt -39 93
vt 23 93
vt 22 93
vt 22 83
vt 23 83
vt -31 93
vt 39 92
vt -31 -24
vt -31 -39
vt 31 -39
vt 31 -24
vt -39 92
vt 31 93
vt -32 83
vt -31 83
vt -32 93
vt -32 -24
vt -32 -39
vt 32 -39
vt 32 -24
vt 32 93
vt 31 83
vt 32 83
vt 39 84
vt -39 84
vt 0 -16
vt -24 -16
vt 24 -16
vt -8 -16
vt 0 -8
vt -8 -8
vt 8 -8
vt 8 -16
vt -16 -16
vt -16 -8
vt -24 -8
vt 24 -8
vt 16 -8
vt 16 -16
vt -24 7
vt -24 17
vt -39 17
vt -39 7
vt 8 39
vt 7 39
vt 7 24
vt -7 24
vt -7 39
vt -8 39
vt 39 7
vt 39 17
vt 24 17
vt 24 7
vt -24 16
vt -39 16
vt 16 39
vt -16 39
vt 39 16
vt 24 16
vt 17 39
vt 17 24
vt -17 24
vt -17 39
vt -24 8
vt -39 8
vt 39 8
vt 24 8
vt 8 40
vt 0 40
vt 24 40
vt -24 40
vt -8 40
vt 16 40
vt -16 40
vt 24 62
vt 0 62
vt 23 62
vt 23 40
vt -23 40
vt -23 62
vt -24 62
vt -21 62
vt -21 40
vt 21 -24
vt 21 -23
vt -21 -23
vt -21 -24
vt 21 40
vt 21 62
vt 24 63
vt 0 63
vt -22 63
vt -22 62
vt 22 0
vt -22 0
vt 22 62
vt 22 63
vt -24 63
vt 1 40
vt 1 62
vt -1 40
vt -1 62
vt 16 62
vt 8 62
vt -22 55
vt -21 55
vt -16 -21
vt -16 -22
vt -8 -22
vt -8 -21
vt 8 -21
vt 8 -22
vt 16 -22
vt 16 -21
vt 21 55
vt 22 55
vt -8 62
vt -16 62
vt -22 40
vt -24 -21
vt -24 -22
vt 24 -22
vt 24 -21
vt 22 40
vt 16 47
vt 8 47
vt -21 47
vt -22 47
vt 22 47
vt 21 47
vt -8 47
vt -16 47
vt 4.0413344e-15 40
vt 4.0413344e-15 62
vt -4.0413344e-15 -22
vt -3.8576375e-15 -21
vt 3.8576375e-15 -21
vt 4.0413344e-15 -22
vt -3.8576375e-15 62
vt -3.8576375e-15 40
vt 21 -1
vt 21 0
vt -21 0
vt -21 -1
vt -22 39
vt 22 39
vt -7 -4
vt -5 -4
vt -5 -2
vt -7 -2
vt 4 -2
vt 2 -2
vt 2 -4
vt 4 -4
vt -4 5
vt -2 5
vt -2 7
vt -4 7
vt 4 7
vt 2 7
vt 2 5
vt 4 5
vt -4 -4
vt -2 -4
vt -2 -2
vt -4 -2
vt 7 -2
vt 5 -2
vt 5 -4
vt 7 -4

# face normals
vn -1 0 0
vn 0 0 1
vn 0 -1 0
vn 0 1 0
vn 0 0 -1
vn 1 0 0

# objects

o entity0
usemtl 32x32_grey_block
f 1/1/1 2/2/1 3/3/1 4/4/1
f 5/3/2 3/4/2 2/1/2 6/2/2
f 6/5/3 2/6/3 1/1/3 7/7/3
f 8/2/4 4/1/4 3/6/4 5/8/4
f 7/7/5 1/1/5 4/4/5 8/9/5
f 8/4/6 5/9/6 6/7/6 7/1/6
f 4/4/1 3/3/1 9/10/1 10/11/1
f 11/12/2 9/11/2 3/4/2 12/13/2
f 12/14/3 3/6/3 4/1/3 13/15/3
f 14/16/4 10/1/4 9/6/4 11/17/4
f 13/18/5 4/4/5 10/11/5 14/19/5
f 14/11/6 11/20/6 12/9/6 13/4/6
f 15/4/1 16/3/1 17/10/1 18/11/1
f 19/10/2 17/21/2 16/22/2 5/3/2
f 5/5/3 16/23/3 15/24/3 8/7/3
f 20/2/4 18/25/4 17/26/4 19/8/4
f 8/9/5 15/27/5 18/28/5 20/20/5
f 20/11/6 19/20/6 5/9/6 8/4/6
f 13/4/1 21/13/1 22/12/1 14/11/1
f 23/29/2 22/12/2 21/13/2 24/30/2
f 24/31/3 21/32/3 13/15/3 25/33/3
f 26/34/4 14/16/4 22/35/4 23/36/4
f 25/37/5 13/18/5 14/19/5 26/38/5
f 26/11/6 23/19/6 24/18/6 25/4/6
f 27/22/1 12/3/1 11/10/1 28/21/1
f 17/21/2 11/12/2 12/13/2 16/22/2
f 16/23/3 12/14/3 27/39/3 29/40/3
f 30/41/4 28/42/4 11/17/4 17/26/4
f 29/27/5 27/18/5 28/19/5 30/28/5
f 30/28/6 17/20/6 16/9/6 29/27/6
f 31/4/1 32/13/1 33/12/1 34/11/1
f 35/21/2 33/43/2 32/44/2 36/22/2
f 36/45/3 32/46/3 31/47/3 15/24/3
f 18/25/4 34/48/4 33/49/4 35/50/4
f 15/27/5 31/51/5 34/52/5 18/28/5
f 18/11/6 35/19/6 36/18/6 15/4/6
f 37/53/1 38/54/1 23/12/1 26/11/1
f 33/43/2 23/29/2 38/55/2 39/56/2
f 39/46/3 38/31/3 37/33/3 40/47/3
f 34/48/4 26/34/4 23/36/4 33/49/4
f 40/57/5 37/58/5 26/38/5 34/52/5
f 34/11/6 33/19/6 39/59/6 40/53/6
f 25/4/1 24/13/1 41/60/1 42/61/1
f 43/62/2 41/63/2 24/30/2 32/44/2
f 32/46/3 24/31/3 25/33/3 31/47/3
f 44/48/4 42/34/4 41/36/4 43/49/4
f 31/51/5 25/37/5 42/64/5 44/65/5
f 44/61/6 43/66/6 32/18/6 31/4/6
f 45/67/1 37/53/1 46/68/1 47/69/1
f 48/70/2 46/71/2 37/55/2 40/56/2
f 40/47/3 37/33/3 45/72/3 49/73/3
f 50/74/4 47/75/4 46/34/4 48/48/4
f 49/57/5 45/58/5 47/76/5 50/77/5
f 50/78/6 48/68/6 40/53/6 49/79/6
f 51/80/1 52/81/1 42/61/1 53/82/1
f 44/62/2 42/63/2 52/83/2 54/84/2
f 54/47/3 52/33/3 51/72/3 55/73/3
f 56/74/4 53/75/4 42/34/4 44/48/4
f 55/85/5 51/86/5 53/64/5 56/65/5
f 56/87/6 44/61/6 54/81/6 55/88/6
f 55/80/1 54/81/1 48/68/1 50/69/1
f 57/89/2 48/70/2 54/84/2 58/90/2
f 58/91/3 54/47/3 55/73/3 59/92/3
f 60/93/4 50/74/4 48/48/4 57/94/4
f 59/95/5 55/85/5 50/77/5 60/96/5
f 60/78/6 57/68/6 58/81/6 59/88/6
f 61/80/1 62/81/1 63/68/1 64/69/1
f 46/71/2 63/97/2 62/98/2 52/83/2
f 52/33/3 62/99/3 61/100/3 51/72/3
f 47/75/4 64/101/4 63/102/4 46/34/4
f 51/86/5 61/103/5 64/104/5 47/76/5
f 47/78/6 46/68/6 52/81/6 51/88/6
f 65/51/1 66/105/1 67/106/1 68/52/1
f 69/21/2 67/43/2 66/44/2 70/22/2
f 70/107/3 66/73/3 65/57/3 71/108/3
f 72/109/4 68/56/4 67/74/4 69/110/4
f 71/27/5 65/51/5 68/52/5 72/28/5
f 72/43/6 69/111/6 70/112/6 71/44/6
f 73/57/1 45/67/1 74/106/1 75/52/1
f 67/43/2 74/29/2 45/55/2 49/56/2
f 49/73/3 45/72/3 73/58/3 76/57/3
f 68/56/4 75/55/4 74/75/4 67/74/4
f 76/57/5 73/58/5 75/38/5 68/52/5
f 68/43/6 67/111/6 49/79/6 76/56/6
f 77/51/1 78/105/1 79/106/1 80/52/1
f 74/29/2 79/12/2 78/13/2 81/30/2
f 81/72/3 78/113/3 77/59/3 82/58/3
f 75/55/4 80/54/4 79/114/4 74/75/4
f 82/37/5 77/18/5 80/19/5 75/38/5
f 75/43/6 74/111/6 81/112/6 82/44/6
f 82/51/1 81/105/1 53/82/1 83/65/1
f 56/62/2 53/63/2 81/30/2 66/44/2
f 66/73/3 81/72/3 82/58/3 65/57/3
f 84/56/4 83/55/4 53/75/4 56/74/4
f 65/51/5 82/37/5 83/64/5 84/65/5
f 84/62/6 56/87/6 66/112/6 65/44/6
f 85/115/1 86/116/1 87/117/1 88/118/1
f 89/119/2 87/120/2 86/11/2 90/10/2
f 90/121/3 86/122/3 85/123/3 91/124/3
f 92/125/4 88/123/4 87/122/4 89/126/4
f 91/20/5 85/11/5 88/120/5 92/127/5
f 92/128/6 89/129/6 90/130/6 91/131/6
f 93/132/1 94/105/1 95/106/1 85/115/1
f 79/12/2 95/11/2 94/4/2 78/13/2
f 78/113/3 94/133/3 93/123/3 96/134/3
f 97/135/4 85/123/4 95/133/4 79/114/4
f 96/18/5 93/4/5 85/11/5 97/19/5
f 97/131/6 79/111/6 78/112/6 96/136/6
f 98/132/1 70/105/1 69/106/1 99/115/1
f 100/10/2 69/21/2 70/22/2 101/3/2
f 101/137/3 70/107/3 98/138/3 102/124/3
f 91/125/4 99/139/4 69/110/4 100/140/4
f 102/9/5 98/27/5 99/28/5 91/20/5
f 91/131/6 100/111/6 101/112/6 102/136/6
f 103/141/1 104/142/1 94/105/1 93/132/1
f 101/3/2 94/4/2 104/1/2 105/2/2
f 105/137/3 104/133/3 103/123/3 106/124/3
f 102/125/4 93/123/4 94/133/4 101/140/4
f 106/7/5 103/1/5 93/4/5 102/9/5
f 102/136/6 101/112/6 105/143/6 106/144/6
f 96/132/1 107/145/1 108/146/1 97/115/1
f 109/21/2 108/12/2 107/13/2 110/22/2
f 110/147/3 107/148/3 96/134/3 98/138/3
f 99/139/4 97/135/4 108/149/4 109/150/4
f 98/27/5 96/18/5 97/19/5 99/28/5
f 99/131/6 109/151/6 110/152/6 98/136/6
f 111/28/1 95/106/1 112/153/1 113/154/1
f 114/119/2 112/120/2 95/11/2 100/10/2
f 100/137/3 95/133/3 111/11/3 115/20/3
f 116/10/4 113/11/4 112/133/4 114/140/4
f 115/20/5 111/11/5 113/120/5 116/127/5
f 116/155/6 114/156/6 100/111/6 115/21/6
f 117/116/1 118/28/1 119/154/1 120/117/1
f 116/119/2 119/157/2 118/43/2 115/10/2
f 115/20/3 118/52/3 117/158/3 90/121/3
f 89/126/4 120/159/4 119/43/4 116/10/4
f 90/20/5 117/52/5 120/160/5 89/127/5
f 89/129/6 116/155/6 115/21/6 90/130/6
f 86/116/1 111/28/1 113/154/1 87/117/1
f 121/161/2 113/120/2 111/11/2 122/29/2
f 122/38/3 111/11/3 86/122/3 123/162/3
f 124/163/4 87/122/4 113/11/4 121/29/4
f 123/38/5 86/11/5 87/120/5 124/164/5
f 124/129/6 121/155/6 122/21/6 123/130/6
f 125/165/1 124/126/1 126/166/1 127/167/1
f 128/168/2 126/169/2 124/170/2 120/171/2
f 120/158/3 124/162/3 125/172/3 129/173/3
f 130/174/4 127/175/4 126/163/4 128/159/4
f 129/176/5 125/177/5 127/178/5 130/179/5
f 130/180/6 128/181/6 120/121/6 129/182/6
f 129/165/1 131/183/1 132/184/1 130/167/1
f 133/185/2 132/168/2 131/171/2 134/186/2
f 134/187/3 131/188/3 129/173/3 135/189/3
f 136/190/4 130/174/4 132/191/4 133/192/4
f 135/193/5 129/176/5 130/179/5 136/194/5
f 136/180/6 133/195/6 134/196/6 135/182/6
f 137/165/1 138/183/1 139/184/1 140/167/1
f 141/169/2 139/197/2 138/198/2 142/170/2
f 142/199/3 138/200/3 137/201/3 125/172/3
f 127/175/4 140/202/4 139/203/4 141/204/4
f 125/177/5 137/205/5 140/206/5 127/178/5
f 127/180/6 141/195/6 142/196/6 125/182/6
f 121/10/1 142/183/1 141/184/1 143/207/1
f 132/168/2 141/169/2 142/170/2 131/171/2
f 131/188/3 142/199/3 121/38/3 119/52/3
f 144/43/4 143/29/4 141/204/4 132/191/4
f 119/176/5 121/177/5 143/178/5 144/179/5
f 144/208/6 132/195/6 131/196/6 119/20/6
f 145/209/1 146/210/1 147/211/1 148/212/1
f 149/213/2 147/214/2 146/215/2 150/216/2
f 150/137/3 146/133/3 145/11/3 151/20/3
f 152/10/4 148/11/4 147/133/4 149/140/4
f 151/217/5 145/215/5 148/214/5 152/218/5
f 152/219/6 149/220/6 150/221/6 151/222/6
f 153/223/1 145/209/1 148/212/1 154/224/1
f 155/225/2 148/214/2 145/215/2 143/226/2
f 143/38/3 145/11/3 153/122/3 126/162/3
f 156/163/4 154/122/4 148/11/4 155/29/4
f 126/227/5 153/215/5 154/214/5 156/228/5
f 156/229/6 155/219/6 143/222/6 126/230/6
f 157/231/1 153/223/1 154/224/1 158/232/1
f 159/213/2 154/214/2 153/215/2 160/216/2
f 160/121/3 153/122/3 157/123/3 161/124/3
f 162/125/4 158/123/4 154/122/4 159/126/4
f 161/217/5 157/215/5 158/214/5 162/218/5
f 162/233/6 159/229/6 160/230/6 161/234/6
f 128/223/1 144/209/1 163/212/1 164/224/1
f 152/213/2 163/235/2 144/236/2 151/216/2
f 151/20/3 144/52/3 128/158/3 160/121/3
f 159/126/4 164/159/4 163/43/4 152/10/4
f 160/217/5 128/237/5 164/238/5 159/218/5
f 159/229/6 152/219/6 151/222/6 160/230/6
f 158/232/1 147/211/1 165/239/1 166/240/1
f 167/241/2 165/242/2 147/214/2 168/243/2
f 168/113/3 147/133/3 158/123/3 169/134/3
f 170/135/4 166/123/4 165/133/4 167/114/4
f 169/244/5 158/214/5 166/242/5 170/245/5
f 170/246/6 167/247/6 168/220/6 169/233/6
f 171/232/1 172/211/1 173/248/1 174/249/1
f 175/250/2 173/251/2 172/219/2 149/213/2
f 149/137/3 172/107/3 171/138/3 162/124/3
f 176/125/4 174/139/4 173/110/4 175/140/4
f 162/218/5 171/212/5 174/252/5 176/253/5
f 176/254/6 175/255/6 149/220/6 162/233/6
f 169/232/1 177/256/1 178/257/1 170/240/1
f 179/258/2 178/241/2 177/243/2 180/219/2
f 180/147/3 177/148/3 169/134/3 171/138/3
f 181/139/4 170/135/4 178/149/4 179/150/4
f 171/212/5 169/244/5 170/245/5 181/259/5
f 181/246/6 179/260/6 180/261/6 171/233/6
f 182/238/1 168/211/1 167/239/1 183/262/1
f 184/258/2 167/241/2 168/243/2 172/219/2
f 172/107/3 168/113/3 182/59/3 185/108/3
f 186/109/4 183/54/4 167/114/4 184/110/4
f 185/212/5 182/244/5 183/245/5 186/259/5
f 186/263/6 184/247/6 172/220/6 185/235/6
f 166/240/1 165/239/1 187/264/1 188/265/1
f 189/266/2 187/267/2 165/242/2 190/268/2
f 190/137/3 165/133/3 166/123/3 191/124/3
f 192/125/4 188/123/4 187/133/4 189/140/4
f 191/269/5 166/242/5 188/267/5 192/270/5
f 192/271/6 189/272/6 190/247/6 191/246/6
f 193/273/1 194/274/1 195/259/1 196/275/1
f 197/268/2 195/258/2 194/276/2 198/277/2
f 198/155/3 194/21/3 193/130/3 199/129/3
f 200/117/4 196/116/4 195/28/4 197/154/4
f 199/278/5 193/274/5 196/259/5 200/269/5
f 200/279/6 197/258/6 198/276/6 199/280/6
f 174/249/1 201/281/1 196/275/1 181/240/1
f 200/268/2 196/258/2 201/251/2 202/250/2
f 202/129/3 201/130/3 174/131/3 176/128/3
f 191/118/4 181/115/4 196/116/4 200/117/4
f 176/253/5 174/252/5 181/259/5 191/269/5
f 191/246/6 200/279/6 202/282/6 176/254/6
f 201/281/1 203/252/1 204/283/1 205/284/1
f 206/285/2 204/286/2 203/251/2 207/250/2
f 207/155/3 203/21/3 201/130/3 202/129/3
f 208/117/4 205/116/4 204/28/4 206/154/4
f 202/253/5 201/252/5 205/283/5 208/287/5
f 208/288/6 206/286/6 207/251/6 202/282/6
f 203/252/1 173/248/1 184/239/1 195/259/1
f 190/268/2 184/258/2 173/251/2 175/250/2
f 175/156/3 173/111/3 203/21/3 207/155/3
f 197/154/4 195/28/4 184/106/4 190/153/4
f 207/253/5 203/252/5 195/259/5 197/269/5
f 197/258/6 190/247/6 175/255/6 207/251/6
f 209/289/1 210/290/1 211/291/1 212/292/1
f 213/293/2 211/294/2 210/295/2 214/296/2
f 214/297/3 210/298/3 209/23/3 215/299/3
f 216/300/4 212/26/4 211/301/4 213/302/4
f 215/303/5 209/304/5 212/305/5 216/306/5
f 216/307/6 213/308/6 214/309/6 215/310/6
f 199/273/1 198/274/1 212/292/1 217/311/1
f 216/293/2 212/294/2 198/277/2 218/312/2
f 218/299/3 198/23/3 199/313/3 219/314/3
f 220/315/4 217/316/4 212/26/4 216/300/4
f 219/317/5 199/278/5 217/305/5 220/306/5
f 220/318/6 216/307/6 218/276/6 219/280/6
f 221/319/1 222/320/1 217/311/1 223/321/1
f 220/293/2 217/294/2 222/295/2 224/296/2
f 224/314/3 222/313/3 221/322/3 225/323/3
f 226/324/4 223/325/4 217/316/4 220/315/4
f 225/303/5 221/304/5 223/305/5 226/306/5
f 226/326/6 220/318/6 224/327/6 225/328/6
f 222/320/1 209/289/1 206/283/1 208/284/1
f 227/329/2 206/285/2 209/295/2 215/296/2
f 215/299/3 209/23/3 222/313/3 224/314/3
f 228/315/4 208/316/4 206/26/4 227/300/4
f 224/303/5 222/304/5 208/287/5 228/330/5
f 228/288/6 227/286/6 215/310/6 224/327/6
f 229/43/1 9/10/1 230/119/1 231/157/1
f 232/119/2 230/120/2 9/11/2 19/10/2
f 19/5/3 9/6/3 229/331/3 233/332/3
f 234/333/4 231/331/4 230/6/4 232/8/4
f 233/20/5 229/11/5 231/120/5 234/127/5
f 234/160/6 232/127/6 19/20/6 233/52/6
f 235/29/1 229/43/1 231/157/1 236/161/1
f 237/161/2 231/120/2 229/11/2 238/29/2
f 238/334/3 229/331/3 235/335/3 239/336/3
f 240/337/4 236/335/4 231/331/4 237/338/4
f 239/38/5 235/11/5 236/120/5 240/164/5
f 240/164/6 237/160/6 238/52/6 239/38/6
f 241/29/1 242/43/1 243/157/1 244/161/1
f 234/119/2 243/157/2 242/43/2 233/10/2
f 233/332/3 242/339/3 241/340/3 245/341/3
f 246/342/4 244/343/4 243/344/4 234/333/4
f 245/20/5 241/52/5 244/160/5 246/127/5
f 246/164/6 234/160/6 233/52/6 245/38/6
f 10/11/1 235/29/1 236/161/1 247/120/1
f 246/119/2 236/120/2 235/11/2 245/10/2
f 245/341/3 235/335/3 10/1/3 20/7/3
f 248/2/4 247/1/4 236/335/4 246/342/4
f 20/20/5 10/11/5 247/120/5 248/127/5
f 248/120/6 246/164/6 245/38/6 20/11/6
f 249/345/1 250/346/1 251/347/1 252/348/1
f 253/349/2 251/350/2 250/351/2 254/161/2
f 254/71/3 250/97/3 249/98/3 255/83/3
f 256/86/4 252/103/4 251/104/4 253/76/4
f 255/164/5 249/352/5 252/353/5 256/354/5
f 256/355/6 253/356/6 254/357/6 255/358/6
f 237/359/1 254/346/1 253/347/1 257/360/1
f 258/361/2 253/349/2 254/161/2 259/157/2
f 259/70/3 254/71/3 237/55/3 243/56/3
f 260/57/4 257/58/4 253/76/4 258/77/4
f 243/160/5 237/164/5 257/354/5 260/362/5
f 260/363/6 258/356/6 259/357/6 243/364/6
f 261/345/1 259/346/1 258/347/1 262/348/1
f 263/365/2 258/361/2 259/157/2 264/366/2
f 264/89/3 259/70/3 261/84/3 265/90/3
f 266/95/4 262/85/4 258/77/4 263/96/4
f 265/367/5 261/160/5 262/362/5 266/368/5
f 266/355/6 263/356/6 264/357/6 265/358/6
f 255/345/1 240/369/1 267/370/1 256/348/1
f 268/361/2 267/349/2 240/161/2 244/157/2
f 244/62/3 240/63/3 255/83/3 261/84/3
f 262/85/4 256/86/4 267/64/4 268/65/4
f 261/160/5 255/164/5 256/354/5 262/362/5
f 262/355/6 268/371/6 244/372/6 261/358/6
f 269/123/1 270/349/1 271/373/1 272/374/1
f 273/375/2 271/374/2 270/123/2 274/125/2
f 274/341/3 270/335/3 269/1/3 275/7/3
f 276/2/4 272/1/4 271/335/4 273/342/4
f 275/124/5 269/123/5 272/374/5 276/376/5
f 276/374/6 273/377/6 274/354/6 275/123/6
f 268/349/1 260/361/1 277/378/1 278/373/1
f 279/375/2 277/378/2 260/361/2 280/125/2
f 280/332/3 260/339/3 268/340/3 274/341/3
f 273/342/4 278/343/4 277/344/4 279/333/4
f 274/124/5 268/362/5 278/379/5 273/376/5
f 273/377/6 279/379/6 280/362/6 274/354/6
f 281/361/1 282/125/1 283/375/1 284/378/1
f 285/375/2 283/374/2 282/123/2 286/125/2
f 286/5/3 282/6/3 281/331/3 280/332/3
f 279/333/4 284/331/4 283/6/4 285/8/4
f 280/124/5 281/123/5 284/374/5 279/376/5
f 279/379/6 285/376/6 286/124/6 280/362/6
f 270/349/1 281/361/1 284/378/1 271/373/1
f 287/373/2 284/374/2 281/123/2 257/349/2
f 257/334/3 281/331/3 270/335/3 267/336/3
f 288/337/4 271/335/4 284/331/4 287/338/4
f 267/354/5 270/123/5 271/374/5 288/377/5
f 288/377/6 287/379/6 257/362/6 267/354/6
f 289/374/1 290/375/1 291/380/1 292/381/1
f 293/380/2 291/382/2 290/383/2 285/375/2
f 285/5/3 290/23/3 289/24/3 276/7/3
f 294/2/4 292/25/4 291/26/4 293/8/4
f 276/376/5 289/384/5 292/385/5 294/386/5
f 294/381/6 293/386/6 285/376/6 276/374/6
f 295/383/1 296/375/1 297/380/1 298/382/1
f 291/382/2 297/387/2 296/388/2 290/383/2
f 290/23/3 296/389/3 295/390/3 299/40/3
f 300/41/4 298/391/4 297/392/4 291/26/4
f 299/384/5 295/393/5 298/394/5 300/385/5
f 300/385/6 291/386/6 290/376/6 299/384/6
f 301/381/1 302/380/1 303/395/1 304/396/1
f 305/395/2 303/397/2 302/398/2 293/380/2
f 293/5/3 302/301/3 301/399/3 294/7/3
f 306/2/4 304/400/4 303/298/4 305/8/4
f 294/386/5 301/401/5 304/402/5 306/403/5
f 306/396/6 305/403/6 293/386/6 294/381/6
f 307/374/1 308/404/1 309/405/1 310/381/1
f 311/382/2 309/405/2 308/404/2 312/383/2
f 312/45/3 308/32/3 307/15/3 289/24/3
f 292/25/4 310/16/4 309/35/4 311/50/4
f 289/384/5 307/406/5 310/407/5 292/385/5
f 292/381/6 311/407/6 312/406/6 289/374/6
f 313/225/1 314/235/1 315/408/1 316/409/1
f 317/387/2 315/398/2 314/410/2 318/411/2
f 318/412/3 314/413/3 313/414/3 319/415/3
f 320/416/4 316/417/4 315/418/4 317/419/4
f 319/420/5 313/421/5 316/401/5 320/394/5
f 320/422/6 317/423/6 318/238/6 319/228/6
f 321/378/1 322/375/1 302/380/1 315/408/1
f 297/387/2 302/398/2 322/424/2 296/388/2
f 296/425/3 322/426/3 321/413/3 323/412/3
f 317/419/4 315/418/4 302/427/4 297/428/4
f 323/393/5 321/429/5 315/401/5 317/394/5
f 317/423/6 297/386/6 296/376/6 323/379/6
f 324/373/1 321/378/1 325/430/1 326/431/1
f 327/432/2 325/433/2 321/424/2 323/388/2
f 323/412/3 321/413/3 324/414/3 328/415/3
f 329/416/4 326/417/4 325/418/4 327/419/4
f 328/393/5 324/429/5 326/434/5 329/435/5
f 329/436/6 327/437/6 323/379/6 328/377/6
f 330/438/1 324/373/1 316/409/1 301/439/1
f 320/387/2 316/398/2 324/424/2 328/388/2
f 328/415/3 324/414/3 330/440/3 331/441/3
f 332/442/4 301/443/4 316/417/4 320/416/4
f 331/393/5 330/429/5 301/401/5 332/394/5
f 332/444/6 320/422/6 328/377/6 331/445/6
f 331/374/1 333/404/1 334/405/1 332/381/1
f 309/405/2 334/387/2 333/388/2 308/404/2
f 308/32/3 333/446/3 331/447/3 307/15/3
f 310/16/4 332/448/4 334/449/4 309/35/4
f 307/406/5 331/393/5 332/394/5 310/407/5
f 310/381/6 309/407/6 308/406/6 307/374/6
f 335/123/1 336/125/1 322/375/1 330/374/1
f 283/374/2 322/424/2 336/450/2 282/123/2
f 282/6/3 336/301/3 335/399/3 269/1/3
f 272/1/4 330/400/4 322/298/4 283/6/4
f 269/123/5 335/451/5 330/429/5 272/374/5
f 272/374/6 283/376/6 282/124/6 269/123/6
usemtl 128x128_grey_block
f 337/452/1 338/453/1 339/454/1 340/455/1
f 341/456/2 339/457/2 338/458/2 342/459/2
f 342/460/3 338/461/3 337/462/3 343/463/3
f 344/464/4 340/465/4 339/466/4 341/467/4
f 343/468/5 337/469/5 340/470/5 344/471/5
f 344/472/6 341/473/6 342/474/6 343/475/6
