# vertices
v -28 -12 -24
v -28 -12 24
v -28 -8 24
v -28 -8 -24
v 0 -8 24
v 0 -12 24
v 0 -12 -24
v 0 -8 -24
v -4 -36 -24
v -4 -36 24
v -4 -12 24
v -4 -12 -24
v 0 -36 24
v 0 -36 -24
v 20 -36 4
v 20 -36 24
v 20 12 24
v 20 12 4
v 24 12 24
v 24 -36 24
v 24 -36 4
v 24 12 4
v 20 -36 -24
v 20 -36 -4
v 20 12 -4
v 20 12 -24
v 24 12 -4
v 24 -36 -4
v 24 -36 -24
v 24 12 -24
v 20 4 -4
v 20 4 4
v 24 4 4
v 24 4 -4
v 20 -4 4
v 20 -4 -4
v 24 -4 4
v 24 -4 -4
v -24 -8 -24
v -24 -8 -20
v -24 12 -20
v -24 12 -24
v 0 12 -20
v 0 -8 -20
v 0 12 -24
v -28 8 -4
v -28 8 4
v -28 12 4
v -28 12 -4
v -24 12 4
v -24 8 4
v -24 8 -4
v -24 12 -4
v 16 -36 -4
v 16 -36 4
v 16 -32 4
v 16 -32 -4
v 20 -32 4
v 20 -32 -4
v 0 -36 -4
v 0 -36 4
v 0 -32 4
v 0 -32 -4
v 8 -32 4
v 8 -36 4
v 8 -36 -4
v 8 -32 -4
v 0 -32 24
v 20 -32 24
v 0 -32 -24
v 20 -32 -24
v -28 -8 4
v -28 12 24
v -24 12 24
v -24 -8 24
v -24 -8 4
v -28 -8 -4
v -28 12 -24
v -24 -8 -4
v -28 16 24
v -28 16 4
v 20 16 24
v 20 16 4
v 12 12 -4
v 12 12 4
v 12 16 4
v 12 16 -4
v 20 16 -4
v -28 16 -4
v -28 16 -24
v 20 16 -24
v 4 16 4
v 4 12 4
v 4 12 -4
v 4 16 -4
v 24 16 24
v 24 16 -24
v 16 -32 -24
v 16 -32 -20
v 16 12 -20
v 16 12 -24
v 20 12 -20
v 20 -32 -20
v 0 -32 -20
v 8 12 -20
v 8 -32 -20
v 8 -32 -24
v 8 12 -24
v 8 -4 -20
v 8 -4 -24
v 16 -4 -20
v 16 -4 -24
v 8 4 -24
v 8 4 -20
v 16 4 -20
v 16 4 -24
v 8 -32 20
v 8 -32 24
v 8 -4 24
v 8 -4 20
v 16 -4 24
v 16 -32 24
v 16 -32 20
v 16 -4 20
v 16 12 24
v 16 12 20
v 20 -32 20
v 20 12 20
v 0 -32 20
v 0 12 24
v 0 12 20
v 8 12 24
v 8 12 20
v 8 4 20
v 8 4 24
v 16 4 24
v 16 4 20
v -24 -8 20
v -24 12 20
v 0 -8 20
v -28 0 4
v -28 0 -4
v -24 0 4
v -24 0 -4

# texture coordinates
vt -24 -12
vt 24 -12
vt 24 -8
vt -24 -8
vt 0 -8
vt -28 -8
vt -28 -12
vt 0 -12
vt 0 -24
vt 28 -24
vt 28 24
vt 0 24
vt -28 24
vt -28 -24
vt 28 -12
vt 28 -8
vt -24 -36
vt 24 -36
vt -4 -12
vt -4 -36
vt 0 -36
vt 4 -24
vt 4 24
vt -4 24
vt -4 -24
vt 4 -36
vt 4 -12
vt 24 12
vt 4 12
vt 20 12
vt 20 -36
vt -24 -24
vt -20 -24
vt -20 -4
vt -24 -4
vt 24 -4
vt 20 -4
vt 20 -24
vt 24 -24
vt -20 -36
vt -20 12
vt -24 12
vt -4 12
vt -24 4
vt -20 4
vt -20 24
vt -24 24
vt 24 24
vt 20 24
vt 20 4
vt 24 4
vt -4 4
vt 4 4
vt 4 -4
vt -4 -4
vt -20 -8
vt 0 12
vt 0 20
vt 24 20
vt -24 20
vt 20 -8
vt -4 8
vt 4 8
vt -28 12
vt -28 8
vt -24 8
vt 28 -4
vt 28 4
vt -28 4
vt -28 -4
vt 24 8
vt 28 8
vt 28 12
vt -36 4
vt -36 -4
vt -32 -4
vt -32 4
vt -32 -20
vt -32 -16
vt -36 -16
vt -36 -20
vt 4 -20
vt 4 -16
vt -4 -16
vt -4 -20
vt 36 -20
vt 36 -16
vt 32 -16
vt 32 -20
vt 32 4
vt 32 -4
vt 36 -4
vt 36 4
vt -32 -8
vt -32 5.8783045e-15
vt -36 6.613093e-15
vt -36 -8
vt 4 -8
vt 4 6.613093e-15
vt -4 6.613093e-15
vt -4 -8
vt 4 5.8783045e-15
vt -4 5.8783045e-15
vt 36 -8
vt 36 6.613093e-15
vt 32 5.8783045e-15
vt 32 -8
vt 24 -32
vt 4 -32
vt 20 -32
vt 0 -32
vt 0 -4
vt -20 -32
vt -4 -32
vt -24 -32
vt 0 4
vt 12 -4
vt 12 -24
vt 16 -24
vt 16 -4
vt -16 20
vt -16 -28
vt -12 -28
vt -12 20
vt -24 -28
vt -4 -28
vt -4 20
vt 4 20
vt 4 -28
vt 24 -28
vt 12 20
vt 12 -28
vt 16 -28
vt 16 20
vt -16 -4
vt -16 -24
vt -12 -24
vt -12 -4
vt 12 4
vt 16 4
vt -16 12
vt -12 12
vt 12 12
vt 16 12
vt -16 4
vt -12 4
vt 12 24
vt 16 24
vt -16 24
vt -12 24
vt 16 -32
vt -20 20
vt 20 20
vt -16 -32
vt 8 12
vt 8 -32
vt -8 20
vt -8 24
vt 8 24
vt 8 20
vt -8 -32
vt -8 12
vt 8 -4
vt -8 -4
vt 8 4
vt -8 4
vt -8 -24
vt -8 -20
vt -16 -20
vt 16 -20
vt 8 -20
vt 8 -24
vt -20 -20
vt 20 -20
vt 0 -20
vt 24 -20
vt -24 -20
vt 4 0
vt -4 0
vt -24 0
vt -28 0
vt 28 0
vt 24 0

# face normals
vn -1 0 0
vn 0 0 1
vn 0 -1 0
vn 0 1 0
vn 0 0 -1
vn 1 0 0

# objects

o entity0
usemtl 32x32_grey_block
f 1/1/1 2/2/1 3/3/1 4/4/1
f 5/5/2 3/6/2 2/7/2 6/8/2
f 6/9/3 2/10/3 1/11/3 7/12/3
f 8/12/4 4/13/4 3/14/4 5/9/4
f 7/8/5 1/15/5 4/16/5 8/5/5
f 8/3/6 5/4/6 6/1/6 7/2/6
f 9/17/1 10/18/1 11/2/1 12/1/1
f 6/8/2 11/19/2 10/20/2 13/21/2
f 13/9/3 10/22/3 9/23/3 14/12/3
f 7/12/4 12/24/4 11/25/4 6/9/4
f 14/21/5 9/26/5 12/27/5 7/8/5
f 7/2/6 6/1/6 13/17/6 14/18/6
f 15/26/1 16/18/1 17/28/1 18/29/1
f 19/28/2 17/30/2 16/31/2 20/18/2
f 20/32/3 16/33/3 15/34/3 21/35/3
f 22/36/4 18/37/4 17/38/4 19/39/4
f 21/17/5 15/40/5 18/41/5 22/42/5
f 22/43/6 19/42/6 20/17/6 21/20/6
f 23/17/1 24/20/1 25/43/1 26/42/1
f 27/28/2 25/30/2 24/31/2 28/18/2
f 28/44/3 24/45/3 23/46/3 29/47/3
f 30/48/4 26/49/4 25/50/4 27/51/4
f 29/17/5 23/40/5 26/41/5 30/42/5
f 30/28/6 27/29/6 28/26/6 29/18/6
f 31/52/1 32/53/1 18/29/1 25/43/1
f 22/28/2 18/30/2 32/50/2 33/51/2
f 33/35/3 32/34/3 31/45/3 34/44/3
f 27/51/4 25/50/4 18/37/4 22/36/4
f 34/44/5 31/45/5 25/41/5 27/42/5
f 27/29/6 22/43/6 33/52/6 34/53/6
f 24/20/1 15/26/1 35/54/1 36/55/1
f 37/36/2 35/37/2 15/31/2 21/18/2
f 21/35/3 15/34/3 24/45/3 28/44/3
f 38/51/4 36/50/4 35/37/4 37/36/4
f 28/17/5 24/40/5 36/34/5 38/35/5
f 38/54/6 37/55/6 21/20/6 28/26/6
f 39/4/1 40/56/1 41/41/1 42/42/1
f 43/57/2 41/42/2 40/4/2 44/5/2
f 44/58/3 40/59/3 39/48/3 8/12/3
f 45/12/4 42/47/4 41/60/4 43/58/4
f 8/5/5 39/3/5 42/28/5 45/57/5
f 45/28/6 43/30/6 44/61/6 8/3/6
f 46/62/1 47/63/1 48/29/1 49/43/1
f 50/42/2 48/64/2 47/65/2 51/66/2
f 51/36/3 47/67/3 46/68/3 52/51/3
f 53/44/4 49/69/4 48/70/4 50/35/4
f 52/71/5 46/72/5 49/73/5 53/28/5
f 53/29/6 50/43/6 51/62/6 52/63/6
f 54/74/1 55/75/1 56/76/1 57/77/1
f 58/78/2 56/79/2 55/80/2 15/81/2
f 15/82/3 55/83/3 54/84/3 24/85/3
f 59/82/4 57/83/4 56/84/4 58/85/4
f 24/86/5 54/87/5 57/88/5 59/89/5
f 59/90/6 58/91/6 15/92/6 24/93/6
f 60/74/1 61/75/1 62/76/1 63/77/1
f 64/94/2 62/95/2 61/96/2 65/97/2
f 65/98/3 61/99/3 60/100/3 66/101/3
f 67/98/4 63/102/4 62/103/4 64/101/4
f 66/104/5 60/105/5 63/106/5 67/107/5
f 67/90/6 64/91/6 65/92/6 66/93/6
f 61/26/1 13/18/1 68/108/1 62/109/1
f 69/110/2 68/111/2 13/21/2 16/31/2
f 16/33/3 13/9/3 61/112/3 15/34/3
f 58/37/4 62/112/4 68/9/4 69/38/4
f 15/40/5 61/21/5 62/111/5 58/113/5
f 58/114/6 69/115/6 16/17/6 15/20/6
f 14/17/1 60/20/1 63/114/1 70/115/1
f 59/110/2 63/111/2 60/21/2 24/31/2
f 24/45/3 60/116/3 14/12/3 23/46/3
f 71/49/4 70/12/4 63/116/4 59/50/4
f 23/40/5 14/21/5 70/111/5 71/113/5
f 71/108/6 59/109/6 24/26/6 23/18/6
f 72/98/1 3/3/1 73/28/1 48/29/1
f 74/42/2 73/64/2 3/6/2 75/4/2
f 75/39/3 3/10/3 72/67/3 76/36/3
f 50/35/4 48/70/4 73/14/4 74/32/4
f 76/3/5 72/16/5 48/73/5 50/28/5
f 50/43/6 74/42/6 75/4/6 76/101/6
f 4/4/1 77/101/1 49/43/1 78/42/1
f 53/42/2 49/64/2 77/6/2 79/4/2
f 79/51/3 77/68/3 4/11/3 39/48/3
f 42/47/4 78/13/4 49/69/4 53/44/4
f 39/3/5 4/16/5 78/73/5 42/28/5
f 42/28/6 53/29/6 79/98/6 39/3/6
f 48/117/1 73/118/1 80/119/1 81/120/1
f 82/121/2 80/122/2 73/123/2 17/124/2
f 17/60/3 73/125/3 48/126/3 18/127/3
f 83/128/4 81/129/4 80/130/4 82/59/4
f 18/131/5 48/132/5 81/133/5 83/134/5
f 83/135/6 82/136/6 17/137/6 18/138/6
f 84/139/1 85/117/1 86/120/1 87/140/1
f 83/121/2 86/141/2 85/142/2 18/124/2
f 18/127/3 85/43/3 84/29/3 25/128/3
f 88/127/4 87/43/4 86/29/4 83/128/4
f 25/131/5 84/143/5 87/144/5 88/134/5
f 88/145/6 83/135/6 18/138/6 25/146/6
f 78/147/1 49/139/1 89/140/1 90/148/1
f 88/121/2 89/122/2 49/123/2 25/124/2
f 25/128/3 49/129/3 78/130/3 26/59/3
f 91/60/4 90/125/4 89/126/4 88/127/4
f 26/131/5 78/132/5 90/133/5 91/134/5
f 91/149/6 88/145/6 25/146/6 26/150/6
f 49/139/1 48/117/1 81/120/1 89/140/1
f 92/145/2 81/122/2 48/123/2 93/146/2
f 93/52/3 48/126/3 49/129/3 94/53/3
f 95/52/4 89/126/4 81/129/4 92/53/4
f 94/139/5 49/132/5 89/133/5 95/140/5
f 95/145/6 92/135/6 93/138/6 94/146/6
f 26/147/1 17/118/1 82/119/1 91/148/1
f 96/149/2 82/121/2 17/124/2 19/150/2
f 19/47/3 17/60/3 26/59/3 30/48/3
f 97/47/4 91/60/4 82/59/4 96/48/4
f 30/147/5 26/131/5 91/134/5 97/148/5
f 97/149/6 96/136/6 19/137/6 30/150/6
f 98/115/1 99/113/1 100/41/1 101/42/1
f 102/30/2 100/144/2 99/151/2 103/110/2
f 103/152/3 99/121/3 98/149/3 71/46/3
f 26/49/4 101/148/4 100/134/4 102/153/4
f 71/113/5 98/154/5 101/141/5 26/41/5
f 26/28/6 102/30/6 103/110/6 71/108/6
f 70/115/1 104/113/1 43/41/1 45/42/1
f 105/155/2 43/57/2 104/111/2 106/156/2
f 106/157/3 104/58/3 70/12/3 107/158/3
f 108/159/4 45/12/4 43/58/4 105/160/4
f 107/161/5 70/111/5 45/57/5 108/162/5
f 108/28/6 105/30/6 106/110/6 107/108/6
f 107/115/1 106/113/1 109/34/1 110/35/1
f 111/120/2 109/163/2 106/156/2 99/151/2
f 99/121/3 106/157/3 107/158/3 98/149/3
f 112/148/4 110/159/4 109/160/4 111/134/4
f 98/154/5 107/161/5 110/164/5 112/135/5
f 112/36/6 111/37/6 99/110/6 98/108/6
f 113/44/1 114/45/1 105/41/1 108/42/1
f 100/144/2 105/155/2 114/165/2 115/140/2
f 115/121/3 114/157/3 113/158/3 116/149/3
f 101/148/4 108/159/4 105/160/4 100/134/4
f 116/145/5 113/166/5 108/162/5 101/141/5
f 101/28/6 100/30/6 115/50/6 116/51/6
f 117/110/1 118/108/1 119/36/1 120/37/1
f 121/120/2 119/163/2 118/156/2 122/151/2
f 122/136/3 118/167/3 117/168/3 123/169/3
f 124/170/4 120/171/4 119/172/4 121/119/4
f 123/154/5 117/161/5 120/164/5 124/135/5
f 124/34/6 121/35/6 122/115/6 123/113/6
f 123/110/1 122/108/1 125/28/1 126/30/1
f 17/30/2 125/144/2 122/151/2 69/110/2
f 69/33/3 122/136/3 123/169/3 127/173/3
f 128/174/4 126/170/4 125/119/4 17/38/4
f 127/113/5 123/154/5 126/141/5 128/41/5
f 128/41/6 17/42/6 69/115/6 127/113/6
f 129/110/1 68/108/1 130/28/1 131/30/1
f 132/155/2 130/57/2 68/111/2 118/156/2
f 118/167/3 68/9/3 129/175/3 117/168/3
f 133/171/4 131/175/4 130/9/4 132/172/4
f 117/161/5 129/111/5 131/57/5 133/162/5
f 133/41/6 132/42/6 118/115/6 117/113/6
f 134/50/1 135/51/1 132/28/1 133/30/1
f 125/144/2 132/155/2 135/165/2 136/140/2
f 136/136/3 135/167/3 134/168/3 137/169/3
f 126/170/4 133/171/4 132/172/4 125/119/4
f 137/145/5 134/166/5 133/162/5 126/141/5
f 126/41/6 125/42/6 136/44/6 137/45/6
f 138/61/1 75/3/1 74/28/1 139/30/1
f 130/57/2 74/42/2 75/4/2 5/5/2
f 5/9/3 75/39/3 138/176/3 140/175/3
f 131/175/4 139/177/4 74/32/4 130/9/4
f 140/5/5 138/3/5 139/28/5 131/57/5
f 131/41/6 130/42/6 5/4/6 140/56/6
f 77/101/1 72/98/1 141/178/1 142/179/1
f 143/180/2 141/181/2 72/6/2 76/4/2
f 76/36/3 72/67/3 77/68/3 79/51/3
f 144/44/4 142/69/4 141/70/4 143/35/4
f 79/3/5 77/16/5 142/182/5 144/183/5
f 144/178/6 143/179/6 76/101/6 79/98/6
