# vertices
v 2 36 -30
v 2 36 -26
v 4 46 -24
v 4 46 -32
v 5 46 -24
v 3 36 -26
v 3 36 -30
v 5 46 -32
v -3 36 -31
v -3 36 -30
v -5 46 -32
v -5 46 -33
v 3 36 -31
v 5 46 -33
v -3 36 -26
v -5 46 -24
v -4 46 -24
v -2 36 -26
v -2 36 -30
v -4 46 -32
v -3 36 -25
v -5 46 -23
v 5 46 -23
v 3 36 -25
v -12 28 -12
v -12 28 12
v -12 29 12
v -12 29 -12
v 12 29 12
v 12 28 12
v 12 28 -12
v 12 29 -12
v -29 12 -12
v -29 12 12
v -28 12 12
v -28 12 -12
v -29 -12 -12
v -29 -12 12
v -28 -12 12
v -28 -12 -12
v -12 -12 -29
v -12 -12 -28
v -12 12 -28
v -12 12 -29
v 12 12 -28
v 12 -12 -28
v 12 -12 -29
v 12 12 -29
v 28 -12 -12
v 28 -12 12
v 28 12 12
v 28 12 -12
v 29 12 12
v 29 -12 12
v 29 -12 -12
v 29 12 -12
v -12 -12 28
v -12 -12 29
v -12 12 29
v -12 12 28
v 12 12 29
v 12 -12 29
v 12 -12 28
v 12 12 28
v -12 18 -22
v -12 19 -22
v 12 19 -22
v 12 18 -22
v -12 -29 -12
v -12 -28 -12
v 12 -28 -12
v 12 -29 -12
v 12 -29 12
v 12 -28 12
v -12 -29 12
v -12 -28 12
v -2 -28 -2
v -2 -28 2
v -2 -8 2
v -2 -8 -2
v 2 -8 2
v 2 -28 2
v 2 -28 -2
v 2 -8 -2
v -4 -6 4
v -4 -6 -4
v 4 -6 4
v 4 -6 -4
v -2 8 -2
v -2 8 2
v -2 28 2
v -2 28 -2
v 2 28 2
v 2 8 2
v 2 8 -2
v 2 28 -2
v -4 6 4
v -4 6 -4
v 4 6 4
v 4 6 -4
v -12 23 -18
v -12 23 -17
v 12 23 -17
v 12 23 -18
v -2 23 -17
v -2 18 -22
v -2 23 -18
v -2 19 -22
v 2 18 -22
v 2 23 -17
v 2 23 -18
v 2 19 -22
v -3 18 -23
v -3 19 -22
v -3 27 -30
v -3 27 -31
v 3 19 -22
v 3 18 -23
v 3 27 -30
v 3 27 -31
v -3 23 -18
v -3 24 -17
v -3 32 -25
v -3 32 -26
v 3 24 -17
v 3 23 -18
v 3 32 -25
v 3 32 -26
v 2 27 -30
v 2 32 -26
v -2 32 -26
v -2 27 -30
v -12 -23 18
v -12 -23 17
v 12 -23 18
v 12 -23 17
v 2 -23 17
v 2 -23 18
v 2 -19 22
v 2 -18 22
v 12 -18 22
v 12 -19 22
v -12 -19 22
v -12 -18 22
v -2 -18 22
v -2 -19 22
v -2 -23 18
v -2 -23 17
v -3 -32 26
v -3 -27 30
v -3 -19 22
v -3 -23 18
v -2 -27 30
v -2 -32 26
v -3 -27 31
v -3 -18 23
v 3 -18 23
v 3 -27 31
v 3 -27 30
v 3 -19 22
v -3 -24 17
v -3 -32 25
v 3 -23 18
v 3 -32 26
v 3 -32 25
v 3 -24 17
v -3 -36 25
v -3 -36 26
v 3 -36 26
v 3 -36 25
v -3 -36 30
v -2 -36 30
v -2 -36 26
v -3 -36 31
v 3 -36 31
v 3 -36 30
v -5 -46 24
v -5 -46 32
v -4 -46 32
v -4 -46 24
v -5 -46 33
v 5 -46 33
v 5 -46 32
v -5 -46 23
v 5 -46 24
v 5 -46 23
v 4 -46 24
v 4 -46 32
v 2 -36 30
v 2 -36 26
v 2 -27 30
v 2 -32 26

# texture coordinates
vt -30 36
vt -26 36
vt -24 46
vt -32 46
vt 5 46
vt 4 46
vt 2 36
vt 3 36
vt 26 3
vt 26 2
vt 30 2
vt 30 3
vt -32 5
vt -32 4
vt -24 4
vt -24 5
vt -3 36
vt -2 36
vt -4 46
vt -5 46
vt 32 46
vt 24 46
vt 26 36
vt 30 36
vt -31 36
vt -33 46
vt 30 -3
vt 31 -3
vt 31 3
vt -33 5
vt -33 -5
vt -32 -5
vt 33 46
vt 31 36
vt 26 -2
vt 26 -3
vt 30 -2
vt -32 -4
vt -24 -5
vt -24 -4
vt -25 36
vt -23 46
vt 25 3
vt 25 -3
vt -23 -5
vt -23 5
vt 23 46
vt 25 36
vt -12 28
vt 12 28
vt 12 29
vt -12 29
vt -12 12
vt -12 -12
vt 12 -12
vt 12 12
vt -29 12
vt -28 12
vt -12 -28
vt -12 -29
vt 12 -29
vt 12 -28
vt 28 12
vt 29 12
vt -29 -12
vt -28 -12
vt 28 -12
vt 29 -12
vt -12.000001 -12
vt -12.000001 12
vt -11.999999 -28
vt -28 -12.000001
vt -29 -12.000001
vt -11.999999 -29
vt 11.999999 -29
vt 29 -12.000001
vt 28 -12.000001
vt 11.999999 -28
vt 12.000001 12
vt 12.000001 -12
vt -22 18
vt -22 19
vt -12 19
vt 12 19
vt 12 18
vt -12 18
vt 22 19
vt 22 18
vt -5.0000052 15.999997
vt 10.999995 15.999997
vt -5.0000052 33
vt 56.999992 29
vt 329 12
vt 313 12
vt 56.999992 28
vt 5 32
vt -11 16
vt 5 16
vt 328 12
vt 312 12
vt 55.999992 28
vt 55.999992 29
vt 6 15.000001
vt 6 31.000002
vt -10 15.000001
vt -6.0000052 31.999998
vt -6.0000052 14.999997
vt 9.999995 14.999997
vt -4.9999976 31.999998
vt -4.9999976 14.999997
vt 11.000003 14.999997
vt -11 15.000001
vt 5 15.000001
vt 5 31.000002
vt 327.99976 12
vt 311.99976 12
vt 55.99975 28
vt 55.99975 29
vt -5.9999976 14.999997
vt 10.000003 14.999997
vt -5.9999976 31.999998
vt -4.9999976 33.000008
vt -4.9999976 16.000004
vt 11.000003 16.000004
vt -11 15.999995
vt 5 15.999995
vt 5 31.999996
vt 5 16.000011
vt 5 32.00001
vt -11 16.000011
vt 11.0000105 16.000004
vt -4.99999 33.000008
vt -4.99999 16.000004
vt -4.9999995 16.000004
vt 11.000001 16.000004
vt -4.9999995 33.000008
vt 5 31.99998
vt -11 15.99998
vt 5 15.99998
vt 2 28
vt -2 28
vt -2 8
vt 2 8
vt -2 2
vt -2 -2
vt 2 -2
vt 2 2
vt -4 6
vt 4 6
vt -4 4
vt 4 4
vt -4 -4
vt 4 -4
vt 2 -8
vt -2 -8
vt -2 -28
vt 2 -28
vt -4 -6
vt 4 -6
vt 1.9999999 8
vt 1.9999999 -2
vt 1.9999999 2
vt -1.9999999 8
vt -18 23
vt -17 23
vt -12 23
vt 12 23
vt 12 -17
vt -12 -17
vt -12 -18
vt 12 -18
vt 17 23
vt 18 23
vt -2 -23
vt -12 -23
vt -2 -18
vt 2 18
vt 12 17
vt 2 17
vt 2 19
vt 2 23
vt -2 18
vt -2 19
vt 12 -23
vt 2 -23
vt 2 -18
vt -2 17
vt -12 17
vt -2 23
vt -23 18
vt -30 27
vt -31 27
vt 22 3
vt 22 -3
vt 23 -3
vt 23 3
vt 3 27
vt -3 27
vt -3 19
vt 3 19
vt -31 3
vt -31 -3
vt -30 -3
vt -30 3
vt -3 18
vt 3 18
vt 30 27
vt 23 18
vt 31 27
vt -17 24
vt -25 32
vt -26 32
vt 17 3
vt 17 -3
vt 18 -3
vt 18 3
vt 3 32
vt -3 32
vt -3 24
vt 3 24
vt -26 3
vt -26 -3
vt -25 -3
vt -25 3
vt -3 23
vt 3 23
vt 26 32
vt 25 32
vt 17 24
vt 2 32
vt 23 2
vt 19 2
vt 19 3
vt -3 -22
vt -2 -22
vt -2 -30
vt -3 -30
vt -27 3
vt -27 2
vt -32 2
vt -32 3
vt -2 32
vt 23 -2
vt 19 -3
vt 19 -2
vt 2 -22
vt 3 -22
vt 3 -30
vt 2 -30
vt -27 -2
vt -27 -3
vt -32 -3
vt -32 -2
vt 32 -2
vt 32 -3
vt 27 -3
vt 27 -2
vt -30 -2
vt -26 -2
vt 2 27
vt 32 3
vt 32 2
vt 27 2
vt 27 3
vt -30 2
vt -26 2
vt -2 27

# face normals
vn -0.9805806756909202 0.19611613513818404 0
vn 0 -0.19611613513818404 0.9805806756909202
vn 0 -1 0
vn 0 1 0
vn 0 -0.19611613513818404 -0.9805806756909202
vn 0.9805806756909202 -0.19611613513818404 0
vn -0.9805806756909202 -0.19611613513818404 0
vn 0 0.19611613513818404 0.9805806756909201
vn 0 -0.19611613513818404 -0.9805806756909201
vn 0.9805806756909202 0.19611613513818404 0
vn 0 -0.19611613513818404 0.9805806756909201
vn 0 0.19611613513818404 -0.9805806756909201
vn -1 0 0
vn 0 0 1
vn 0 0 -1
vn 1 0 0
vn -0.7071067811865476 0.7071067811865476 0
vn 0.7071067811865475 -0.7071067811865475 0
vn -0.7071067811865476 0 0.7071067811865476
vn 0.7071067811865475 0 -0.7071067811865475
vn -0.7071067811865475 0 -0.7071067811865475
vn 0.7071067811865476 0 0.7071067811865476
vn -0.7071067811865476 0 -0.7071067811865476
vn 0.7071067811865475 0 0.7071067811865475
vn -0.7071067811865475 0 0.7071067811865475
vn 0.7071067811865476 0 -0.7071067811865476
vn -0.7071067811865475 -0.7071067811865475 0
vn 0.7071067811865476 0.7071067811865476 0
vn 0 0.7071067811865476 0.7071067811865476
vn 0 -0.7071067811865475 -0.7071067811865475
vn 0 -0.7071067811865475 0.7071067811865475
vn 0 0.7071067811865476 -0.7071067811865476
vn -0.5773502691896258 0.5773502691896258 -0.5773502691896258
vn 0.5773502691896258 -0.5773502691896258 0.5773502691896258
vn -0.5773502691896258 -0.5773502691896258 0.5773502691896258
vn 0.5773502691896258 0.5773502691896258 -0.5773502691896258
vn -0.5773502691896258 0.5773502691896258 0.5773502691896258
vn 0.5773502691896258 -0.5773502691896258 -0.5773502691896258
vn -0.5773502691896258 -0.5773502691896258 -0.5773502691896258
vn 0.5773502691896258 0.5773502691896258 0.5773502691896258
vn 0 0.7071067811865475 0.7071067811865475
vn 0 -0.7071067811865476 -0.7071067811865476
vn -0.7071067811865475 0.7071067811865475 0
vn 0.7071067811865476 -0.7071067811865476 0
vn -0.7071067811865476 -0.7071067811865476 0
vn 0.7071067811865475 0.7071067811865475 0
vn 0 0.7071067811865475 -0.7071067811865475
vn 0 -0.7071067811865476 0.7071067811865476
vn 0 -0.6643638388299198 -0.7474093186836598
vn 0 0.6643638388299198 0.7474093186836597
vn 0 0.6246950475544243 -0.7808688094430304
vn 0 -0.6246950475544243 0.7808688094430304
vn 0 -0.6643638388299198 -0.7474093186836597
vn 0 0.6643638388299198 0.7474093186836598
vn 0 0.19611613513818404 0.9805806756909202
vn 0 0.19611613513818404 -0.9805806756909202

# objects

o entity0
usemtl 32x32_grey_block
f 1/1/1 2/2/1 3/3/1 4/4/1
f 5/5/2 3/6/2 2/7/2 6/8/2
f 6/9/3 2/10/3 1/11/3 7/12/3
f 8/13/4 4/14/4 3/15/4 5/16/4
f 7/17/5 1/18/5 4/19/5 8/20/5
f 8/21/6 5/22/6 6/23/6 7/24/6
f 9/25/7 10/1/7 11/4/7 12/26/7
f 8/5/8 11/20/8 10/17/8 7/8/8
f 7/12/3 10/27/3 9/28/3 13/29/3
f 14/30/4 12/31/4 11/32/4 8/13/4
f 13/17/9 9/8/9 12/5/9 14/20/9
f 14/33/6 8/21/6 7/24/6 13/34/6
f 10/1/7 15/2/7 16/3/7 11/4/7
f 17/19/2 16/20/2 15/17/2 18/18/2
f 18/35/3 15/36/3 10/27/3 19/37/3
f 20/38/4 11/32/4 16/39/4 17/40/4
f 19/7/5 10/8/5 11/5/5 20/6/5
f 20/21/10 17/22/10 18/23/10 19/24/10
f 15/2/7 21/41/7 22/42/7 16/3/7
f 23/5/11 22/20/11 21/17/11 24/8/11
f 24/43/3 21/44/3 15/36/3 6/9/3
f 5/16/4 16/39/4 22/45/4 23/46/4
f 6/17/12 15/8/12 16/5/12 5/20/12
f 5/22/6 23/47/6 24/48/6 6/23/6
f 25/49/13 26/50/13 27/51/13 28/52/13
f 29/51/14 27/52/14 26/49/14 30/50/14
f 30/53/3 26/54/3 25/55/3 31/56/3
f 32/53/4 28/54/4 27/55/4 29/56/4
f 31/49/15 25/50/15 28/51/15 32/52/15
f 32/51/16 29/52/16 30/49/16 31/50/16
f 28/52/17 33/53/17 34/56/17 27/51/17
f 27/52/14 34/57/14 35/58/14 26/49/14
f 35/59/3 34/60/3 33/61/3 36/62/3
f 25/50/15 36/63/15 33/64/15 28/51/15
f 26/49/18 35/53/18 36/56/18 25/50/18
f 26/50/16 25/49/16 28/52/16 27/51/16
f 37/54/13 38/55/13 34/56/13 33/53/13
f 35/58/14 34/57/14 38/65/14 39/66/14
f 39/59/3 38/60/3 37/61/3 40/62/3
f 36/59/4 33/60/4 34/61/4 35/62/4
f 40/67/15 37/68/15 33/64/15 36/63/15
f 36/56/16 35/53/16 39/54/16 40/55/16
f 41/65/13 42/66/13 43/58/13 44/57/13
f 45/56/14 43/53/14 42/54/14 46/55/14
f 46/63/3 42/67/3 41/68/3 47/64/3
f 48/57/4 44/65/4 43/66/4 45/58/4
f 47/54/15 41/55/15 44/56/15 48/53/15
f 48/64/16 45/63/16 46/67/16 47/68/16
f 49/54/13 50/55/13 51/56/13 52/53/13
f 53/64/14 51/63/14 50/67/14 54/68/14
f 54/52/3 50/49/3 49/50/3 55/51/3
f 56/52/4 52/49/4 51/50/4 53/51/4
f 55/65/15 49/66/15 52/58/15 56/57/15
f 56/56/16 53/53/16 54/54/16 55/55/16
f 57/67/13 58/68/13 59/64/13 60/63/13
f 61/56/14 59/53/14 58/54/14 62/55/14
f 62/57/3 58/65/3 57/66/3 63/58/3
f 64/63/4 60/67/4 59/68/4 61/64/4
f 63/54/15 57/55/15 60/56/15 64/53/15
f 64/58/16 61/57/16 62/65/16 63/66/16
f 59/53/19 34/57/19 38/65/19 58/54/19
f 58/65/3 38/60/3 39/59/3 57/66/3
f 60/67/4 35/62/4 34/61/4 59/68/4
f 39/66/15 38/65/15 34/57/15 35/58/15
f 57/55/20 39/67/20 35/63/20 60/56/20
f 58/65/16 57/66/16 60/58/16 59/57/16
f 61/57/13 64/58/13 63/66/13 62/65/13
f 50/55/21 63/67/21 64/63/21 51/56/21
f 62/60/3 63/59/3 50/66/3 54/65/3
f 53/68/4 51/67/4 64/62/4 61/61/4
f 54/65/15 50/66/15 51/58/15 53/57/15
f 53/53/22 61/57/22 62/65/22 54/54/22
f 41/65/23 37/69/23 33/70/23 44/57/23
f 36/58/14 33/57/14 37/65/14 40/66/14
f 42/71/3 40/72/3 37/73/3 41/74/3
f 44/75/4 33/76/4 36/77/4 43/78/4
f 43/63/24 36/79/24 40/80/24 42/67/24
f 41/65/16 44/57/16 43/58/16 42/66/16
f 47/65/13 46/66/13 45/58/13 48/57/13
f 45/79/25 46/80/25 49/67/25 52/63/25
f 56/57/14 52/58/14 49/66/14 55/65/14
f 55/74/3 49/71/3 46/72/3 47/73/3
f 48/76/4 45/77/4 52/78/4 56/75/4
f 55/65/26 47/69/26 48/70/26 56/57/26
f 32/51/13 31/50/13 30/49/13 29/52/13
f 52/53/27 51/56/27 30/50/27 31/49/27
f 29/51/14 30/50/14 51/63/14 53/64/14
f 53/61/3 51/62/3 52/59/3 56/60/3
f 56/57/15 52/58/15 31/49/15 32/52/15
f 29/52/28 53/53/28 56/56/28 32/51/28
f 26/50/13 60/63/13 59/64/13 27/51/13
f 29/51/29 27/52/29 59/53/29 61/56/29
f 61/60/3 59/61/3 60/62/3 64/59/3
f 64/53/30 60/56/30 26/50/30 30/49/30
f 30/50/15 26/49/15 27/52/15 29/51/15
f 64/58/16 30/49/16 29/52/16 61/57/16
f 44/57/13 43/58/13 65/81/13 66/82/13
f 67/83/14 66/84/14 65/85/14 68/86/14
f 68/85/31 65/86/31 43/53/31 45/56/31
f 45/62/3 43/59/3 44/60/3 48/61/3
f 48/53/32 44/56/32 66/84/32 67/83/32
f 67/87/16 68/88/16 45/63/16 48/64/16
f 44/89/33 33/90/33 28/91/33
f 28/92/14 33/93/14 36/94/14 25/95/14
f 43/59/3 36/66/3 33/65/3 44/60/3
f 25/96/34 36/97/34 43/98/34
f 43/63/16 44/64/16 28/51/16 25/50/16
f 48/99/13 45/100/13 31/101/13 32/102/13
f 52/103/35 31/104/35 45/105/35
f 32/51/14 31/50/14 52/63/14 56/64/14
f 56/60/3 52/59/3 45/66/3 48/65/3
f 32/106/36 56/107/36 48/108/36
f 27/109/37 34/110/37 59/111/37
f 59/65/3 34/60/3 35/59/3 60/66/3
f 26/50/15 35/63/15 34/64/15 27/51/15
f 60/112/38 35/113/38 26/114/38
f 26/95/16 27/92/16 59/93/16 60/94/16
f 29/51/13 30/50/13 64/63/13 61/64/13
f 51/105/39 64/103/39 30/104/39
f 61/60/3 64/59/3 51/66/3 53/65/3
f 53/115/15 51/116/15 30/117/15 29/118/15
f 61/119/40 53/120/40 29/121/40
f 69/122/39 37/123/39 41/124/39
f 70/50/14 40/63/14 37/64/14 69/51/14
f 41/65/4 37/60/4 40/59/4 42/66/4
f 42/125/40 40/126/40 70/127/40
f 70/95/16 69/92/16 41/93/16 42/94/16
f 69/51/13 70/50/13 42/63/13 41/64/13
f 71/50/14 70/49/14 69/52/14 72/51/14
f 46/53/41 42/56/41 70/50/41 71/49/41
f 47/60/4 41/61/4 42/62/4 46/59/4
f 72/51/42 69/52/42 41/53/42 47/56/42
f 47/57/16 46/58/16 71/49/16 72/52/16
f 72/51/13 71/50/13 46/63/13 47/64/13
f 46/128/37 71/129/37 49/130/37
f 55/115/14 49/116/14 71/117/14 72/118/14
f 47/60/4 46/59/4 49/66/4 55/65/4
f 55/131/38 72/132/38 47/133/38
f 73/51/13 74/50/13 71/49/13 72/52/13
f 71/50/43 74/49/43 50/53/43 49/56/43
f 54/57/14 50/58/14 74/49/14 73/52/14
f 55/61/4 49/62/4 50/59/4 54/60/4
f 72/51/15 71/50/15 49/63/15 55/64/15
f 72/52/44 55/53/44 54/56/44 73/51/44
f 62/99/13 63/100/13 74/101/13 73/102/13
f 74/129/33 63/130/33 50/128/33
f 54/60/4 50/59/4 63/66/4 62/65/4
f 73/51/15 74/50/15 50/63/15 54/64/15
f 54/134/34 62/135/34 73/136/34
f 58/134/35 38/135/35 75/136/35
f 57/59/4 39/66/4 38/65/4 58/60/4
f 75/102/15 38/99/15 39/100/15 76/101/15
f 76/137/36 39/138/36 57/139/36
f 57/63/16 58/64/16 75/51/16 76/50/16
f 75/52/45 38/53/45 37/56/45 69/51/45
f 76/50/14 39/63/14 38/64/14 75/51/14
f 40/59/4 37/60/4 38/61/4 39/62/4
f 69/52/15 37/57/15 40/58/15 70/49/15
f 70/49/46 40/53/46 39/56/46 76/50/46
f 76/49/16 75/52/16 69/51/16 70/50/16
f 69/51/13 75/52/13 76/49/13 70/50/13
f 74/49/14 76/50/14 75/51/14 73/52/14
f 73/53/3 75/54/3 69/55/3 72/56/3
f 71/53/4 70/54/4 76/55/4 74/56/4
f 72/51/15 69/52/15 70/49/15 71/50/15
f 71/49/16 74/50/16 73/51/16 72/52/16
f 77/140/13 78/141/13 79/142/13 80/143/13
f 81/142/14 79/143/14 78/140/14 82/141/14
f 82/144/3 78/145/3 77/146/3 83/147/3
f 84/144/4 80/145/4 79/146/4 81/147/4
f 83/140/15 77/141/15 80/142/15 84/143/15
f 84/142/16 81/143/16 82/140/16 83/141/16
f 80/143/27 79/142/27 85/148/27 86/149/27
f 87/150/31 85/151/31 79/147/31 81/144/31
f 81/144/3 79/145/3 80/146/3 84/147/3
f 88/150/4 86/152/4 85/153/4 87/151/4
f 84/143/30 80/142/30 86/148/30 88/149/30
f 88/148/18 87/149/18 81/143/18 84/142/18
f 89/154/13 90/155/13 91/156/13 92/157/13
f 93/156/14 91/157/14 90/154/14 94/155/14
f 94/144/3 90/145/3 89/146/3 95/147/3
f 96/144/4 92/145/4 91/146/4 93/147/4
f 95/154/15 89/155/15 92/156/15 96/157/15
f 96/156/16 93/157/16 94/154/16 95/155/16
f 86/149/13 85/148/13 97/158/13 98/159/13
f 99/158/14 97/159/14 85/149/14 87/148/14
f 87/150/3 85/152/3 86/153/3 88/151/3
f 100/150/4 98/152/4 97/153/4 99/151/4
f 88/149/15 86/148/15 98/158/15 100/159/15
f 100/158/16 99/159/16 87/149/16 88/148/16
f 98/148/43 97/149/43 90/160/43 89/142/43
f 94/143/41 90/142/41 97/148/41 99/149/41
f 99/150/3 97/152/3 98/153/3 100/151/3
f 95/144/4 89/145/4 90/161/4 94/162/4
f 100/150/47 98/151/47 89/147/47 95/144/47
f 95/143/46 94/163/46 99/148/46 100/149/46
f 101/164/13 102/165/13 25/49/13 28/52/13
f 32/52/14 28/51/14 25/50/14 31/49/14
f 31/50/31 25/49/31 102/166/31 103/167/31
f 103/168/3 102/169/3 101/170/3 104/171/3
f 104/166/32 101/167/32 28/51/32 32/52/32
f 32/51/16 31/50/16 103/172/16 104/173/16
f 65/81/13 102/165/13 101/164/13 66/82/13
f 105/174/31 102/175/31 65/170/31 106/176/31
f 107/177/4 101/85/4 102/178/4 105/179/4
f 108/180/47 66/84/47 101/167/47 107/181/47
f 106/182/15 65/86/15 66/83/15 108/183/15
f 107/173/16 105/172/16 106/88/16 108/87/16
f 109/81/13 110/165/13 111/164/13 112/82/13
f 103/184/31 110/185/31 109/186/31 68/171/31
f 104/86/4 111/182/4 110/187/4 103/188/4
f 67/83/47 112/183/47 111/189/47 104/166/47
f 68/85/15 109/177/15 112/180/15 67/84/15
f 104/173/16 103/172/16 68/88/16 67/87/16
f 113/190/13 114/82/13 115/191/13 116/192/13
f 117/193/48 114/194/48 113/195/48 118/196/48
f 119/197/29 115/198/29 114/199/29 117/200/29
f 120/201/4 116/202/4 115/203/4 119/204/4
f 118/205/49 113/206/49 116/197/49 120/198/49
f 119/207/16 117/87/16 118/208/16 120/209/16
f 121/164/13 122/210/13 123/211/13 124/212/13
f 125/213/48 122/214/48 121/215/48 126/216/48
f 127/217/29 123/218/29 122/219/29 125/220/29
f 128/221/4 124/222/4 123/223/4 127/224/4
f 126/225/49 121/226/49 124/217/49 128/218/49
f 128/227/16 127/228/16 125/229/16 126/173/16
f 129/191/13 112/82/13 111/164/13 130/212/13
f 128/217/50 130/230/50 111/181/50 126/226/50
f 126/196/31 111/231/31 112/232/31 117/233/31
f 117/234/30 112/235/30 129/236/30 119/237/30
f 119/238/51 129/239/51 130/240/51 128/241/51
f 128/227/16 126/173/16 117/87/16 119/207/16
f 115/191/13 114/82/13 121/164/13 124/212/13
f 131/242/50 124/218/50 121/225/50 107/189/50
f 107/243/31 121/195/31 114/244/31 108/245/31
f 108/246/30 114/247/30 115/248/30 132/249/30
f 132/250/51 115/251/51 124/252/51 131/253/51
f 131/227/16 107/173/16 108/87/16 132/207/16
f 116/192/13 115/191/13 10/1/13 9/25/13
f 7/8/14 10/17/14 115/198/14 119/197/14
f 119/12/3 115/27/3 116/28/3 120/29/3
f 13/201/4 9/202/4 10/203/4 7/204/4
f 120/198/15 116/197/15 9/8/15 13/17/15
f 13/34/16 7/24/16 119/207/16 120/209/16
f 124/212/13 123/211/13 21/41/13 15/2/13
f 24/8/14 21/17/14 123/218/14 127/217/14
f 127/43/3 123/44/3 124/36/3 128/9/3
f 6/221/4 15/222/4 21/223/4 24/224/4
f 128/218/15 124/217/15 15/8/15 6/17/15
f 6/23/16 24/48/16 127/228/16 128/227/16
f 115/191/13 124/212/13 15/2/13 10/1/13
f 18/18/14 15/17/14 124/218/14 131/242/14
f 131/254/52 124/255/52 115/256/52 132/257/52
f 19/258/4 10/203/4 15/222/4 18/259/4
f 132/260/15 115/197/15 10/8/15 19/7/15
f 132/207/16 19/24/16 18/23/16 131/227/16
f 129/191/13 130/212/13 2/2/13 1/1/13
f 6/8/14 2/7/14 130/230/14 128/217/14
f 128/261/52 130/262/52 129/263/52 119/264/52
f 7/204/4 1/265/4 2/266/4 6/221/4
f 119/198/15 129/267/15 1/18/15 7/17/15
f 119/207/16 7/24/16 6/23/16 128/227/16
f 75/52/13 133/164/13 134/165/13 76/49/13
f 135/166/48 133/167/48 75/51/48 73/52/48
f 136/168/4 134/169/4 133/170/4 135/171/4
f 74/50/47 76/49/47 134/166/47 136/167/47
f 73/52/15 75/51/15 76/50/15 74/49/15
f 74/50/16 136/172/16 135/173/16 73/51/16
f 137/165/13 138/164/13 139/82/13 140/81/13
f 141/85/14 140/177/14 139/180/14 142/84/14
f 142/83/31 139/183/31 138/189/31 135/166/31
f 135/86/3 138/182/3 137/187/3 136/188/3
f 136/184/47 137/185/47 140/186/47 141/171/47
f 135/173/16 136/172/16 141/88/16 142/87/16
f 143/82/13 58/57/13 57/58/13 144/81/13
f 62/53/48 58/56/48 143/84/48 142/83/48
f 63/62/4 57/59/4 58/60/4 62/61/4
f 141/85/47 144/86/47 57/53/47 63/56/47
f 142/83/15 143/84/15 144/85/15 141/86/15
f 141/88/16 63/63/16 62/64/16 142/87/16
f 134/165/13 133/164/13 143/82/13 144/81/13
f 145/182/14 144/86/14 143/83/14 146/183/14
f 146/180/31 143/84/31 133/167/31 147/181/31
f 147/177/3 133/85/3 134/178/3 148/179/3
f 148/174/47 134/175/47 144/170/47 145/176/47
f 147/173/16 148/172/16 145/88/16 146/87/16
f 149/212/13 150/191/13 151/82/13 152/164/13
f 153/250/52 150/251/52 149/252/52 154/253/52
f 146/246/41 151/247/41 150/248/41 153/249/41
f 147/243/47 152/195/47 151/244/47 146/245/47
f 154/242/53 149/218/53 152/225/53 147/189/53
f 147/173/16 146/87/16 153/207/16 154/227/16
f 151/82/13 150/191/13 155/192/13 156/190/13
f 157/205/54 156/206/54 155/197/54 158/198/54
f 158/201/3 155/202/3 150/203/3 159/204/3
f 159/197/42 150/198/42 151/199/42 160/200/42
f 160/193/32 151/194/32 156/195/32 157/196/32
f 159/207/16 160/87/16 157/208/16 158/209/16
f 161/210/13 162/211/13 149/212/13 152/164/13
f 163/225/54 152/226/54 149/217/54 164/218/54
f 164/221/3 149/222/3 162/223/3 165/224/3
f 165/217/42 162/218/42 161/219/42 166/220/42
f 166/213/32 161/214/32 152/215/32 163/216/32
f 163/173/16 164/227/16 165/228/16 166/229/16
f 167/41/13 168/2/13 149/212/13 162/211/13
f 164/218/14 149/217/14 168/8/14 169/17/14
f 169/221/3 168/222/3 167/223/3 170/224/3
f 165/43/4 162/44/4 149/36/4 164/9/4
f 170/8/15 167/17/15 162/218/15 165/217/15
f 165/228/16 164/227/16 169/23/16 170/48/16
f 168/2/13 171/1/13 150/191/13 149/212/13
f 153/260/14 150/197/14 171/8/14 172/7/14
f 172/258/3 171/203/3 168/222/3 173/259/3
f 154/254/51 149/255/51 150/256/51 153/257/51
f 173/18/15 168/17/15 149/218/15 154/242/15
f 154/227/16 153/207/16 172/24/16 173/23/16
f 171/1/13 174/25/13 155/192/13 150/191/13
f 158/198/14 155/197/14 174/8/14 175/17/14
f 175/201/3 174/202/3 171/203/3 176/204/3
f 159/12/4 150/27/4 155/28/4 158/29/4
f 176/8/15 171/17/15 150/198/15 159/197/15
f 159/207/16 158/209/16 175/34/16 176/24/16
f 177/3/1 178/4/1 171/1/1 168/2/1
f 172/7/55 171/8/55 178/5/55 179/6/55
f 179/38/3 178/32/3 177/39/3 180/40/3
f 173/35/4 168/36/4 171/27/4 172/37/4
f 180/19/56 177/20/56 168/17/56 173/18/56
f 173/23/6 172/24/6 179/21/6 180/22/6
f 178/4/1 181/26/1 174/25/1 171/1/1
f 175/17/8 174/8/8 181/5/8 182/20/8
f 182/30/3 181/31/3 178/32/3 183/13/3
f 176/12/4 171/27/4 174/28/4 175/29/4
f 183/5/9 178/20/9 171/17/9 176/8/9
f 176/24/10 175/34/10 182/33/10 183/21/10
f 184/42/1 177/3/1 168/2/1 167/41/1
f 169/17/11 168/8/11 177/5/11 185/20/11
f 185/16/3 177/39/3 184/45/3 186/46/3
f 170/43/4 167/44/4 168/36/4 169/9/4
f 186/5/12 184/20/12 167/17/12 170/8/12
f 170/48/10 169/23/10 185/22/10 186/47/10
f 187/3/7 188/4/7 189/1/7 190/2/7
f 176/17/55 189/18/55 188/19/55 183/20/55
f 183/13/3 188/14/3 187/15/3 185/16/3
f 169/9/4 190/10/4 189/11/4 176/12/4
f 185/5/56 187/6/56 190/7/56 169/8/56
f 169/23/10 176/24/10 183/21/10 185/22/10
f 190/2/13 189/1/13 191/191/13 192/212/13
f 159/198/14 191/267/14 189/18/14 176/17/14
f 176/204/3 189/265/3 190/266/3 169/221/3
f 164/261/51 192/262/51 191/263/51 159/264/51
f 169/8/15 190/7/15 192/230/15 164/217/15
f 164/227/16 159/207/16 176/24/16 169/23/16
f 192/212/13 191/191/13 139/82/13 138/164/13
f 159/238/52 191/239/52 192/240/52 164/241/52
f 160/234/41 139/235/41 191/236/41 159/237/41
f 163/196/47 138/231/47 139/232/47 160/233/47
f 164/217/53 192/230/53 138/181/53 163/226/53
f 163/173/16 160/87/16 159/207/16 164/227/16
