# vertices
v -16 -6 -6
v -16 -6 6
v -16 6 6
v -16 6 -6
v -8 -6 4
v -8 -6 -4
v -8 6 -4
v -8 6 4
v -4 -6 8
v -6 -6 16
v -6 6 16
v -4 6 8
v 6 6 16
v 6 -6 16
v 4 -6 8
v 4 6 8
v 8 -6 4
v 8 6 4
v 16 -6 6
v 16 6 6
v -6 -6 -16
v -6 6 -16
v -4 -6 -8
v -4 6 -8
v 4 6 -8
v 4 -6 -8
v 6 -6 -16
v 6 6 -16
v 8 6 -4
v 8 -6 -4
v 16 -6 -6
v 16 6 -6
v -48 12 20
v -48 12 4
v -48 -12 4
v -48 -12 20
v -40 -12 18
v -40 -12 4
v -40 12 4
v -40 12 18
v -20 -12 -48
v -48 -12 -20
v -48 12 -20
v -20 12 -48
v -40 12 -18
v -40 -12 -18
v -18 -12 -40
v -18 12 -40
v -40 6 -18
v -40 6 18
v 20 12 18
v 20 6 18
v 20 6 -18
v 20 12 -18
v -18 6 -40
v 40 12 -18
v 40 6 -18
v 18 6 -40
v 18 12 -40
v -18 6 40
v -18 12 40
v 18 12 40
v 18 6 40
v 40 6 18
v 40 12 18
v -18 -12 40
v -18 -6 40
v -40 -6 18
v 18 -6 40
v 18 -12 40
v 40 -12 18
v 40 -6 18
v -40 -6 -18
v -18 -6 -40
v 40 -6 -18
v 40 -12 -18
v 18 -12 -40
v 18 -6 -40
v -48 -12 -4
v -48 12 -4
v -40 12 -4
v -40 -12 -4
v -48 -4 4
v -48 -4 -4
v -40 -4 4
v -40 -4 -4
v -48 4 -4
v -48 4 4
v -40 4 4
v -40 4 -4
v 28 6 -18
v 28 6 18
v 28 12 18
v 28 12 -18
v 20 6 -4
v 20 12 -4
v 28 12 -4
v 28 6 -4
v 20 6 4
v 20 12 4
v 28 6 4
v 28 12 4
v -28 -6 18
v -28 -12 18
v -28 -12 -18
v -28 -6 -18
v -28 -12 4
v -28 -6 4
v -20 -6 18
v -20 -12 18
v -20 -12 4
v -20 -6 4
v -20 -12 -18
v -20 -6 -18
v -28 -12 -4
v -28 -6 -4
v -20 -6 -4
v -20 -12 -4
v -4 12 -40
v -4 -12 -40
v -4 -12 -48
v -4 12 -48
v -4 4 -48
v -4 4 -40
v 4 12 -40
v 4 4 -40
v 4 4 -48
v 4 12 -48
v -4 -4 -40
v -4 -4 -48
v 4 -4 -40
v 4 -12 -40
v 4 -12 -48
v 4 -4 -48
v 20 -12 -48
v 20 12 -48
v 48 -12 -20
v 48 12 -20
v 40 -12 -4
v 40 12 -4
v 48 12 -4
v 48 -12 -4
v 40 4 -4
v 40 4 4
v 40 12 4
v 48 12 4
v 48 4 4
v 48 4 -4
v 40 -12 4
v 40 -4 4
v 40 -4 -4
v 48 -4 4
v 48 -12 4
v 48 -4 -4
v 48 12 20
v 48 -12 20
v 20 12 48
v 20 -12 48
v 4 -12 40
v 4 -12 48
v 4 12 48
v 4 12 40
v -20 -12 48
v -20 12 48
v -4 12 48
v -4 -12 48
v -4 -12 40
v -4 12 40
v -4 4 40
v -4 4 48
v 4 4 48
v 4 4 40
v -4 -4 48
v -4 -4 40
v 4 -4 48
v 4 -4 40

# texture coordinates
vt 6 -6
vt 6 6
vt -6 6
vt -6 -6
vt -8 4
vt -16 6
vt -16 -6
vt -8 -4
vt 8 -4
vt 16 -6
vt 16 6
vt 8 4
vt -8 6
vt -8 -6
vt 8 -6
vt 8 6
vt -6 -4
vt 6 -4
vt 6 4
vt -6 4
vt 6 8
vt 6 16
vt -6 16
vt -6 8
vt -4 8
vt 4 8
vt -4 -6
vt 4 -6
vt 4 6
vt -4 6
vt 20 12
vt 4 12
vt 4 -12
vt 20 -12
vt 18 40
vt 20 48
vt 4 48
vt 4 40
vt -4 40
vt -4 48
vt -20 48
vt -18 40
vt 12 40
vt 12 48
vt -12 48
vt -12 40
vt -18 12
vt -18 -12
vt -4 -12
vt -4 12
vt -12 20
vt 12 20
vt -40 12
vt -48 12
vt -48 -12
vt -40 -12
vt 40 18
vt 48 20
vt -48 20
vt -40 18
vt -12 18
vt 12 18
vt -6 -18
vt -6 18
vt -12 -18
vt -40 6
vt 20 6
vt 20 18
vt -40 -18
vt 20 -18
vt -20 -18
vt 40 -18
vt -20 18
vt -20 6
vt 40 6
vt 40 12
vt -20 12
vt 12 -18
vt 6 18
vt 6 -18
vt -6 -40
vt -12 -40
vt -18 -40
vt 18 -40
vt -18 6
vt 18 6
vt 18 12
vt 12 -40
vt 6 -40
vt -6 40
vt 6 40
vt 18 -6
vt -18 -6
vt 18 -12
vt 40 -12
vt 40 -6
vt -40 -6
vt -20 -12
vt 4 -4
vt -4 -4
vt -40 -4
vt -48 -4
vt 40 -4
vt 48 -4
vt 48 4
vt 40 4
vt -40 4
vt -48 4
vt 48 -12
vt -4 4
vt 4 4
vt 48 12
vt 28 12
vt 28 6
vt 28 18
vt 28 -18
vt -28 -18
vt -28 18
vt -28 6
vt -28 12
vt -12 -4
vt 28 -4
vt 20 -4
vt -20 -4
vt -28 -4
vt 12 -4
vt -12 4
vt 20 4
vt 28 4
vt -28 4
vt -20 4
vt 12 4

# face normals
vn -1 0 0
vn 0 -1 0
vn 0 1 0
vn 0.24253562503633297 0 0.9701425001453319
vn 0.24253562503633297 0 -0.9701425001453319
vn 1 0 0
vn -0.9701425001453319 0 -0.24253562503633297
vn 0 0 1
vn 0 0 -1
vn 0.9701425001453319 0 -0.24253562503633297
vn -0.7071067811865475 0 0.7071067811865475
vn -0.24253562503633297 0 -0.9701425001453319
vn 0.7071067811865475 0 -0.7071067811865475
vn 0.9701425001453319 0 0.24253562503633297
vn -0.9701425001453319 0 0.24253562503633297
vn -0.7071067811865475 0 -0.7071067811865475
vn 0.7071067811865475 0 0.7071067811865475
vn -0.24253562503633297 0 0.9701425001453319
vn 0.242535625036333 0 0.970142500145332
vn -0.7071067811865476 0 -0.7071067811865476
vn -0.242535625036333 0 0.970142500145332
vn 0.7071067811865476 0 0.7071067811865476
vn 0.970142500145332 0 -0.242535625036333
vn 0.7071067811865476 0 -0.7071067811865476
vn -0.7071067811865476 0 0.7071067811865476
vn 0.242535625036333 0 -0.970142500145332
vn -0.970142500145332 0 0.242535625036333
vn 0.970142500145332 0 0.242535625036333
vn -0.970142500145332 0 -0.242535625036333
vn -0.242535625036333 0 -0.970142500145332

# objects

o entity0
usemtl 32x32_grey_block
f 1/1/1 2/2/1 3/3/1 4/4/1
f 5/5/2 2/6/2 1/7/2 6/8/2
f 7/9/3 4/10/3 3/11/3 8/12/3
f 8/13/4 3/6/4 2/7/4 5/14/4
f 6/15/5 1/10/5 4/11/5 7/16/5
f 6/17/6 7/18/6 8/19/6 5/20/6
f 9/21/7 10/22/7 11/23/7 12/24/7
f 13/2/8 11/3/8 10/4/8 14/1/8
f 14/22/2 10/23/2 9/25/2 15/26/2
f 16/25/3 12/26/3 11/22/3 13/23/3
f 15/27/9 9/28/9 12/29/9 16/30/9
f 16/21/10 13/22/10 14/23/10 15/24/10
f 11/23/11 3/3/11 2/2/11 10/22/11
f 5/15/12 2/10/12 3/11/12 8/16/12
f 10/23/2 2/6/2 5/5/2 9/25/2
f 12/26/3 8/12/3 3/11/3 11/22/3
f 9/24/13 5/20/13 8/19/13 12/21/13
f 12/16/14 11/11/14 10/10/14 9/15/14
f 13/11/15 16/16/15 15/15/15 14/10/15
f 17/24/16 15/20/16 16/19/16 18/21/16
f 14/6/2 15/5/2 17/25/2 19/23/2
f 20/22/3 18/26/3 16/12/3 13/11/3
f 19/10/5 17/15/5 18/16/5 20/11/5
f 20/23/17 13/3/17 14/2/17 19/22/17
f 21/2/16 1/22/16 4/23/16 22/3/16
f 7/16/18 4/11/18 1/10/18 6/15/18
f 23/5/2 6/25/2 1/23/2 21/6/2
f 22/11/3 4/22/3 7/26/3 24/12/3
f 24/19/17 7/21/17 6/24/17 23/20/17
f 21/10/10 22/11/10 24/16/10 23/15/10
f 21/23/15 23/24/15 24/21/15 22/22/15
f 25/29/8 24/30/8 23/27/8 26/28/8
f 26/25/2 23/26/2 21/22/2 27/23/2
f 28/22/3 22/23/3 24/25/3 25/26/3
f 27/4/9 21/1/9 22/2/9 28/3/9
f 28/23/14 25/24/14 26/21/14 27/22/14
f 27/10/7 26/15/7 25/16/7 28/11/7
f 29/19/11 25/21/11 26/24/11 30/20/11
f 31/6/2 30/5/2 26/25/2 27/23/2
f 28/22/3 25/26/3 29/12/3 32/11/3
f 32/11/4 29/16/4 30/15/4 31/10/4
f 27/22/13 28/23/13 32/3/13 31/2/13
f 29/19/1 30/20/1 17/17/1 18/18/1
f 20/11/18 18/16/18 17/15/18 19/10/18
f 31/7/12 30/14/12 29/13/12 32/6/12
f 19/7/2 17/8/2 30/5/2 31/6/2
f 32/11/3 29/12/3 18/9/3 20/10/3
f 20/4/6 19/1/6 31/2/6 32/3/6
f 33/31/1 34/32/1 35/33/1 36/34/1
f 37/35/2 36/36/2 35/37/2 38/38/2
f 39/39/3 34/40/3 33/41/3 40/42/3
f 38/43/9 35/44/9 34/45/9 39/46/9
f 40/43/19 33/44/19 36/45/19 37/46/19
f 40/47/6 37/48/6 38/49/6 39/50/6
f 41/51/20 42/45/20 43/44/20 44/52/20
f 45/53/21 43/54/21 42/55/21 46/56/21
f 47/35/2 46/57/2 42/58/2 41/36/2
f 44/41/3 43/59/3 45/60/3 48/42/3
f 48/61/22 45/46/22 46/43/22 47/62/22
f 41/55/23 44/54/23 48/53/23 47/56/23
f 49/63/1 50/64/1 40/61/1 45/65/1
f 51/31/8 40/53/8 50/66/8 52/67/8
f 52/68/2 50/60/2 49/69/2 53/70/2
f 54/71/3 45/72/3 40/57/3 51/73/3
f 53/74/9 49/75/9 45/76/9 54/77/9
f 54/78/6 51/62/6 52/79/6 53/80/6
f 55/63/20 49/81/20 45/82/20 48/65/20
f 56/76/8 45/53/8 49/66/8 57/75/8
f 57/72/2 49/69/2 55/83/2 58/84/2
f 59/83/3 48/84/3 45/72/3 56/69/3
f 58/85/9 55/86/9 48/87/9 59/47/9
f 59/78/24 56/88/24 57/89/24 58/80/24
f 50/64/25 60/90/25 61/46/25 40/61/25
f 62/87/8 61/47/8 60/85/8 63/86/8
f 63/35/2 60/42/2 50/60/2 64/57/2
f 65/60/3 40/57/3 61/35/3 62/42/3
f 64/66/9 50/75/9 40/76/9 65/53/9
f 64/79/22 65/62/22 62/43/22 63/91/22
f 37/43/25 66/62/25 67/79/25 68/91/25
f 69/92/8 67/93/8 66/48/8 70/94/8
f 70/35/2 66/42/2 37/60/2 71/57/2
f 72/60/3 68/57/3 67/35/3 69/42/3
f 71/56/9 37/95/9 68/96/9 72/97/9
f 71/46/22 72/90/22 69/64/22 70/61/22
f 47/78/20 46/88/20 73/89/20 74/80/20
f 75/96/8 73/97/8 46/56/8 76/95/8
f 76/72/2 46/69/2 47/83/2 77/84/2
f 78/83/3 74/84/3 73/72/3 75/69/3
f 77/48/9 47/94/9 74/92/9 78/93/9
f 78/63/24 75/81/24 76/82/24 77/65/24
f 42/98/1 79/49/1 80/50/1 43/77/1
f 81/43/8 80/44/8 79/45/8 82/46/8
f 82/39/2 79/40/2 42/41/2 46/42/2
f 45/35/3 43/36/3 80/37/3 81/38/3
f 46/43/26 42/44/26 43/45/26 45/46/26
f 45/87/6 81/32/6 82/33/6 46/94/6
f 79/49/1 35/33/1 83/99/1 84/100/1
f 85/101/8 83/102/8 35/55/8 38/56/8
f 38/103/2 35/104/2 79/105/2 82/106/2
f 86/107/3 84/108/3 83/102/3 85/101/3
f 82/95/9 79/109/9 84/104/9 86/103/9
f 86/99/6 85/100/6 38/49/6 82/33/6
f 87/110/1 88/111/1 34/32/1 80/50/1
f 39/53/8 34/54/8 88/108/8 89/107/8
f 89/103/2 88/104/2 87/105/2 90/106/2
f 81/107/3 80/108/3 34/102/3 39/101/3
f 90/106/9 87/105/9 80/112/9 81/76/9
f 81/32/6 39/50/6 89/110/6 90/111/6
f 91/63/1 92/64/1 93/61/1 94/65/1
f 65/76/8 93/113/8 92/114/8 64/75/8
f 64/57/2 92/115/2 91/116/2 57/72/2
f 56/69/3 94/117/3 93/118/3 65/60/3
f 57/66/9 91/119/9 94/120/9 56/53/9
f 56/78/6 65/62/6 64/79/6 57/80/6
f 53/63/1 95/17/1 96/121/1 54/65/1
f 97/113/8 96/31/8 95/67/8 98/114/8
f 98/122/2 95/123/2 53/70/2 91/116/2
f 94/117/3 54/71/3 96/124/3 97/125/3
f 91/119/9 53/74/9 54/77/9 94/120/9
f 94/78/6 97/126/6 98/18/6 91/80/6
f 99/20/1 52/64/1 51/61/1 100/127/1
f 93/113/8 51/31/8 52/67/8 92/114/8
f 92/115/2 52/68/2 99/128/2 101/129/2
f 102/130/3 100/131/3 51/73/3 93/118/3
f 101/119/9 99/74/9 100/77/9 102/120/9
f 102/132/6 93/62/6 92/79/6 101/19/6
f 46/78/1 37/62/1 68/79/1 73/80/1
f 103/114/8 68/75/8 37/76/8 104/113/8
f 104/118/2 37/60/2 46/69/2 105/117/2
f 106/116/3 73/72/3 68/57/3 103/115/3
f 105/120/9 46/53/9 73/66/9 106/119/9
f 106/63/6 103/64/6 104/61/6 105/65/6
f 107/132/1 104/62/1 103/79/1 108/19/1
f 109/67/8 103/114/8 104/113/8 110/31/8
f 110/73/2 104/118/2 107/130/2 111/131/2
f 112/128/3 108/129/3 103/115/3 109/68/3
f 111/77/9 107/120/9 108/119/9 112/74/9
f 112/20/6 109/64/6 110/61/6 111/127/6
f 113/78/1 110/62/1 109/79/1 114/80/1
f 72/66/8 109/67/8 110/31/8 71/53/8
f 71/57/2 110/73/2 113/71/2 76/72/2
f 75/69/3 114/70/3 109/68/3 72/60/3
f 76/76/9 113/77/9 114/74/9 75/75/9
f 75/63/6 72/64/6 71/61/6 76/65/6
f 105/78/1 115/126/1 116/18/1 106/80/1
f 117/67/8 116/114/8 115/113/8 118/31/8
f 118/124/2 115/125/2 105/117/2 113/71/2
f 114/70/3 106/116/3 116/122/3 117/123/3
f 113/77/9 105/120/9 106/119/9 114/74/9
f 114/63/6 117/17/6 118/121/6 113/65/6
f 41/45/27 47/46/27 48/43/27 44/44/27
f 119/50/8 48/47/8 47/48/8 120/49/8
f 120/38/2 47/35/2 41/36/2 121/37/2
f 122/40/3 44/41/3 48/42/3 119/39/3
f 121/33/9 41/34/9 44/31/9 122/32/9
f 122/45/6 119/46/6 120/43/6 121/44/6
f 123/108/1 124/107/1 119/53/1 122/54/1
f 125/32/8 119/50/8 124/110/8 126/111/8
f 126/106/2 124/103/2 123/104/2 127/105/2
f 128/108/3 122/102/3 119/101/3 125/107/3
f 127/110/9 123/111/9 122/32/9 128/50/9
f 128/112/6 125/76/6 126/106/6 127/105/6
f 121/55/1 120/56/1 129/101/1 130/102/1
f 131/99/8 129/100/8 120/49/8 132/33/8
f 132/106/2 120/103/2 121/104/2 133/105/2
f 134/108/3 130/102/3 129/101/3 131/107/3
f 133/49/9 121/33/9 130/99/9 134/100/9
f 134/104/6 131/103/6 132/95/6 133/109/6
f 133/45/1 132/46/1 125/43/1 128/44/1
f 59/87/8 125/32/8 132/33/8 77/94/8
f 77/42/2 132/39/2 133/40/2 135/41/2
f 136/36/3 128/37/3 125/38/3 59/35/3
f 135/98/9 133/49/9 128/50/9 136/77/9
f 136/45/28 59/46/28 77/43/28 135/44/28
f 135/55/29 77/56/29 59/53/29 136/54/29
f 56/61/25 59/46/25 77/43/25 76/62/25
f 137/36/2 76/35/2 77/57/2 135/58/2
f 136/59/3 59/60/3 56/42/3 138/41/3
f 138/54/19 56/53/19 76/56/19 137/55/19
f 135/45/24 136/44/24 138/52/24 137/51/24
f 56/47/1 76/48/1 139/49/1 140/50/1
f 137/45/30 76/46/30 56/43/30 138/44/30
f 141/45/8 140/46/8 139/43/8 142/44/8
f 142/37/2 139/38/2 76/35/2 137/36/2
f 138/41/3 56/42/3 140/39/3 141/40/3
f 141/32/6 142/33/6 137/34/6 138/31/6
f 143/110/1 144/111/1 145/32/1 140/50/1
f 146/112/8 145/76/8 144/106/8 147/105/8
f 147/105/2 144/106/2 143/103/2 148/104/2
f 141/102/3 140/101/3 145/107/3 146/108/3
f 148/108/9 143/107/9 140/53/9 141/54/9
f 141/32/6 146/50/6 147/110/6 148/111/6
f 139/49/1 149/33/1 150/99/1 151/100/1
f 152/104/8 150/103/8 149/95/8 153/109/8
f 153/105/2 149/106/2 139/103/2 142/104/2
f 154/102/3 151/101/3 150/107/3 152/108/3
f 142/55/9 139/56/9 151/101/9 154/102/9
f 154/99/6 152/100/6 153/49/6 142/33/6
f 149/33/1 71/94/1 65/87/1 145/32/1
f 155/45/21 65/46/21 71/43/21 156/44/21
f 156/41/2 71/42/2 149/39/2 153/40/2
f 146/37/3 145/38/3 65/35/3 155/36/3
f 153/45/9 149/46/9 145/43/9 146/44/9
f 146/50/6 155/77/6 156/98/6 153/49/6
f 157/54/27 62/53/27 70/56/27 158/55/27
f 71/43/20 70/62/20 62/61/20 65/46/20
f 158/36/2 70/35/2 71/57/2 156/58/2
f 155/59/3 65/60/3 62/42/3 157/41/3
f 156/55/26 71/56/26 65/53/26 155/54/26
f 155/44/22 157/52/22 158/51/22 156/45/22
f 159/43/1 160/44/1 161/45/1 162/46/1
f 157/31/8 161/32/8 160/33/8 158/34/8
f 158/36/2 160/37/2 159/38/2 70/35/2
f 62/42/3 162/39/3 161/40/3 157/41/3
f 70/48/9 159/49/9 162/50/9 62/47/9
f 62/43/23 157/44/23 158/45/23 70/46/23
f 66/43/29 163/44/29 164/45/29 61/46/29
f 165/50/8 164/77/8 163/98/8 166/49/8
f 166/40/2 163/41/2 66/42/2 167/39/2
f 168/38/3 61/35/3 164/36/3 165/37/3
f 167/33/9 66/94/9 61/87/9 168/32/9
f 168/43/6 165/44/6 166/45/6 167/46/6
f 164/44/25 33/52/25 36/51/25 163/45/25
f 37/56/30 36/55/30 33/54/30 40/53/30
f 163/58/2 36/36/2 37/35/2 66/57/2
f 61/60/3 40/42/3 33/41/3 164/59/3
f 66/43/24 37/62/24 40/61/24 61/46/24
f 61/53/28 164/54/28 163/55/28 66/56/28
f 169/106/1 170/105/1 165/112/1 168/76/1
f 161/32/8 165/50/8 170/110/8 171/111/8
f 171/104/2 170/105/2 169/106/2 172/103/2
f 162/101/3 168/107/3 165/108/3 161/102/3
f 172/110/9 169/111/9 168/32/9 162/50/9
f 162/53/6 161/54/6 171/108/6 172/107/6
f 167/95/1 166/109/1 173/104/1 174/103/1
f 175/99/8 173/100/8 166/49/8 160/33/8
f 160/104/2 166/105/2 167/106/2 159/103/2
f 176/101/3 174/107/3 173/108/3 175/102/3
f 159/49/9 167/33/9 174/99/9 176/100/9
f 176/101/6 175/102/6 160/55/6 159/56/6
