# Blender v3.3.1 OBJ File: 'bot_shark.blend'
# www.blender.org
mtllib bot_shark.mtl
o Cube
v 1.000000 0.436216 -1.000000
v 0.843111 -0.554187 -0.702792
v 0.482580 0.603198 1.260346
v 0.843111 -0.554187 0.342275
v 0.132495 -0.294537 -2.747427
v 0.162926 0.478778 -2.747302
v 0.510446 -0.971023 -3.288254
v 0.510446 1.011141 -3.288254
v 0.401966 0.500130 1.683194
v 0.537579 -0.380874 1.718317
v 0.169877 0.073016 2.635523
v 0.128201 -0.169877 2.635523
v 0.900637 -0.350985 -0.702792
v 0.900637 -0.350985 0.342275
v 0.162926 0.000000 -2.747302
v 0.510446 0.037587 -3.288254
v 0.707794 0.104635 1.735851
v 0.169877 0.000000 2.635523
v 0.000000 -1.000000 -0.809382
v 0.000000 1.000000 0.777908
v 0.000000 -1.000000 0.941035
v 0.000000 1.000000 -0.819768
v 0.000000 -0.478778 -2.747302
v 0.000000 0.478778 -2.747302
v 0.000000 -1.179313 -3.288254
v 0.000000 1.254486 -3.288254
v 0.000000 0.588441 2.036411
v 0.000000 -0.588441 2.036411
v 0.000000 0.169877 2.635523
v 0.000000 -0.169877 2.635523
v 0.000000 0.000000 2.635523
v 0.000000 0.037587 -3.288254
v 1.000000 0.000000 -1.000000
v 0.743748 -0.905172 -0.809382
v 0.880647 0.165251 1.300561
v 0.726988 -0.481690 1.282616
v 2.123883 -0.776189 0.299074
v 2.107719 -0.833289 0.299074
v 2.123883 -0.776189 1.015911
v 2.107719 -0.833289 1.015911
v 0.510446 -0.971023 -3.994854
v 0.510446 1.011141 -3.994854
v 0.510446 0.037587 -3.994854
v 0.000000 -1.179313 -3.994854
v 0.000000 1.254486 -3.994854
v 0.000000 0.037587 -3.994854
v 0.707794 0.193887 1.735851
v 0.880647 0.255852 1.300561
v 0.395122 0.658090 1.222797
v 0.314762 0.544170 1.688573
v 0.588441 0.285317 2.036411
v 1.000000 0.436216 1.000000
v 0.773373 -0.297796 1.292110
v 0.627624 -0.232396 1.723293
v 1.000000 0.000000 1.000000
v 0.358776 -0.828687 1.260913
v 0.588441 0.000000 2.036411
v 0.250467 -0.647759 1.714975
v 0.743748 -0.905172 0.941035
v 0.259892 -0.837171 1.260436
v 0.332189 -0.493614 2.036411
v 0.197351 -0.674713 1.719944
v 0.422906 -0.270388 -1.778467
v 0.581463 0.457497 -1.873651
v 0.581463 0.000000 -1.873651
v 0.000000 0.739389 -1.783535
v 0.000000 -0.739389 -1.778342
v -1.000000 0.436216 -1.000000
v -0.843111 -0.554187 -0.702792
v -0.482580 0.603198 1.260346
v -0.843111 -0.554187 0.342275
v -0.132495 -0.294537 -2.747427
v -0.162926 0.478778 -2.747302
v -0.510446 -0.971023 -3.288254
v -0.510446 1.011141 -3.288254
v -0.401966 0.500130 1.683194
v -0.537579 -0.380874 1.718317
v -0.169877 0.073016 2.635523
v -0.128201 -0.169877 2.635523
v -0.900637 -0.350985 -0.702792
v -0.900637 -0.350985 0.342275
v -0.162926 0.000000 -2.747302
v -0.510446 0.037587 -3.288254
v -0.707794 0.104635 1.735851
v -0.169877 0.000000 2.635523
v -1.000000 0.000000 -1.000000
v -0.743748 -0.905172 -0.809382
v -0.880647 0.165251 1.300561
v -0.726988 -0.481690 1.282616
v -2.123883 -0.776189 0.299074
v -2.107719 -0.833289 0.299074
v -2.123883 -0.776189 1.015911
v -2.107719 -0.833289 1.015911
v -0.510446 -0.971023 -3.994854
v -0.510446 1.011141 -3.994854
v -0.510446 0.037587 -3.994854
v -0.707794 0.193887 1.735851
v -0.880647 0.255852 1.300561
v -0.395122 0.658090 1.222797
v -0.314762 0.544170 1.688573
v -0.588441 0.285317 2.036411
v -1.000000 0.436216 1.000000
v -0.773373 -0.297796 1.292110
v -0.627624 -0.232396 1.723293
v -1.000000 0.000000 1.000000
v -0.358776 -0.828687 1.260913
v -0.588441 0.000000 2.036411
v -0.250467 -0.647759 1.714975
v -0.743748 -0.905172 0.941035
v -0.259892 -0.837171 1.260436
v -0.332189 -0.493614 2.036411
v -0.197351 -0.674713 1.719944
v -0.422906 -0.270388 -1.778467
v -0.581463 0.457497 -1.873651
v -0.581463 0.000000 -1.873651
vt 0.250000 0.500000
vt 0.375000 0.500000
vt 0.375000 0.750000
vt 0.250000 0.750000
vt 0.500000 0.500000
vt 0.625000 0.500000
vt 0.625000 0.750000
vt 0.500000 0.750000
vt 0.750000 0.500000
vt 0.625000 0.500000
vt 0.625000 0.500000
vt 0.750000 0.500000
vt 0.500000 0.500000
vt 0.375000 0.500000
vt 0.375000 0.500000
vt 0.500000 0.500000
vt 0.000000 0.000000
vt 0.000000 0.000000
vt 0.000000 0.000000
vt 0.000000 0.000000
vt 0.625000 0.500000
vt 0.750000 0.500000
vt 0.375000 0.500000
vt 0.500000 0.500000
vt 0.250000 0.750000
vt 0.375000 0.750000
vt 0.375000 0.750000
vt 0.250000 0.750000
vt 0.500000 0.750000
vt 0.625000 0.750000
vt 0.625000 0.750000
vt 0.500000 0.750000
vt 0.000000 0.000000
vt 0.000000 0.000000
vt 0.389032 0.736799
vt 0.389032 0.513201
vt 0.389032 0.513201
vt 0.389032 0.736799
vt 0.500000 0.875000
vt 0.375000 0.875000
vt 0.625000 0.875000
vt 0.750000 0.750000
vt 0.750000 0.750000
vt 0.250000 0.500000
vt 0.250000 0.500000
vt 0.250000 0.500000
vt 0.750000 0.500000
vt 0.750000 0.750000
vt 0.485968 0.513201
vt 0.485968 0.736799
vt 0.485968 0.513201
vt 0.485968 0.736799
vt 0.500000 0.375000
vt 0.625000 0.375000
vt 0.625000 0.500000
vt 0.500000 0.500000
vt 0.375000 0.375000
vt 0.375000 0.500000
vt 0.250000 0.500000
vt 0.750000 0.500000
vt 0.644397 0.750000
vt 0.652275 0.750000
vt 0.730286 0.750000
vt 0.722758 0.750000
vt 0.581381 0.750000
vt 0.593479 0.750000
vt 0.531448 0.750000
vt 0.543523 0.750000
vt 0.480071 0.750000
vt 0.395173 0.750000
vt 0.403025 0.750000
vt 0.472015 0.750000
vt 0.349525 0.750000
vt 0.275173 0.750000
vt 0.293225 0.750000
vt 0.331504 0.750000
vt 0.375000 0.750000
vt 0.375000 0.500000
vt 0.500000 0.500000
vt 0.500000 0.750000
vt 0.625000 0.750000
vt 0.625000 0.500000
vt 0.625000 0.500000
vt 0.625000 0.500000
vt 0.500000 0.500000
vt 0.500000 0.500000
vt 0.375000 0.500000
vt 0.375000 0.500000
vt 0.625000 0.500000
vt 0.500000 0.500000
vt 0.375000 0.500000
vt 0.375000 0.750000
vt 0.375000 0.750000
vt 0.500000 0.750000
vt 0.500000 0.750000
vt 0.625000 0.750000
vt 0.625000 0.750000
vt 0.389032 0.736799
vt 0.389032 0.736799
vt 0.389032 0.513201
vt 0.389032 0.513201
vt 0.485968 0.513201
vt 0.485968 0.736799
vt 0.485968 0.736799
vt 0.485968 0.513201
vt 0.500000 0.500000
vt 0.625000 0.500000
vt 0.375000 0.500000
vt 0.644397 0.750000
vt 0.652275 0.750000
vt 0.730286 0.750000
vt 0.722758 0.750000
vt 0.581381 0.750000
vt 0.593479 0.750000
vt 0.531448 0.750000
vt 0.543523 0.750000
vt 0.480071 0.750000
vt 0.395173 0.750000
vt 0.403025 0.750000
vt 0.472015 0.750000
vt 0.349525 0.750000
vt 0.275173 0.750000
vt 0.293225 0.750000
vt 0.331504 0.750000
vn 0.1265 -0.9920 0.0000
vn 1.0000 0.0000 0.0000
vn 0.3266 0.9248 -0.1949
vn 0.8761 -0.3490 -0.3325
vn -1.0000 0.0000 0.0000
vn 0.2127 0.5886 0.7800
vn 0.8251 -0.0193 0.5647
vn 0.1698 -0.8245 0.5397
vn 0.8198 0.0000 0.5727
vn 0.7875 -0.3536 0.5047
vn 0.8413 0.0000 0.5405
vn 0.9019 0.0000 -0.4320
vn -0.2155 -0.9765 0.0000
vn 0.0000 0.0000 1.0000
vn 0.3950 0.7488 0.5322
vn 0.3227 -0.5283 0.7853
vn 0.7480 -0.6360 -0.1897
vn 0.4911 0.8711 0.0000
vn 0.9622 -0.2724 0.0000
vn 0.5894 -0.1669 -0.7904
vn 0.3283 0.9446 0.0000
vn -0.4446 0.1259 0.8868
vn 0.0000 0.0000 -1.0000
vn 0.3778 -0.9259 0.0000
vn 0.4303 0.9027 0.0000
vn 0.4258 0.8562 0.2926
vn 0.4212 0.8605 0.2865
vn 0.4395 0.8510 0.2874
vn 0.4285 0.8585 0.2816
vn 0.9294 0.0000 0.3691
vn 0.8800 -0.2691 0.3914
vn 0.8070 -0.4383 0.3958
vn 0.8426 -0.3155 0.4363
vn 0.8793 -0.3247 0.3484
vn 0.1130 -0.9231 0.3677
vn 0.2829 -0.8795 0.3827
vn 0.1494 -0.9058 0.3965
vn 0.1527 -0.9251 0.3477
vn 0.3910 -0.8092 -0.4386
vn 0.7988 -0.3927 -0.4558
vn 0.4323 0.8763 -0.2126
vn -0.1265 -0.9920 0.0000
vn -0.3266 0.9248 -0.1949
vn -0.8761 -0.3490 -0.3325
vn -0.2127 0.5886 0.7800
vn -0.8251 -0.0193 0.5647
vn -0.1698 -0.8245 0.5397
vn -0.8198 0.0000 0.5727
vn -0.7875 -0.3536 0.5047
vn -0.8413 0.0000 0.5405
vn -0.9019 0.0000 -0.4320
vn 0.2155 -0.9765 0.0000
vn -0.3950 0.7488 0.5322
vn -0.3227 -0.5283 0.7853
vn -0.7480 -0.6360 -0.1897
vn -0.4911 0.8711 0.0000
vn -0.9622 -0.2724 0.0000
vn -0.5894 -0.1669 -0.7904
vn -0.3283 0.9446 0.0000
vn 0.4446 0.1259 0.8868
vn -0.3778 -0.9259 0.0000
vn -0.4303 0.9027 0.0000
vn -0.4258 0.8562 0.2926
vn -0.4212 0.8605 0.2865
vn -0.4395 0.8510 0.2874
vn -0.4285 0.8585 0.2816
vn -0.9294 0.0000 0.3691
vn -0.8800 -0.2691 0.3914
vn -0.8070 -0.4383 0.3958
vn -0.8426 -0.3155 0.4363
vn -0.8793 -0.3247 0.3484
vn -0.1130 -0.9231 0.3677
vn -0.2829 -0.8795 0.3827
vn -0.1494 -0.9058 0.3965
vn -0.1527 -0.9251 0.3477
vn -0.3910 -0.8092 -0.4386
vn -0.7988 -0.3927 -0.4558
vn -0.4323 0.8763 -0.2126
vn 0.2207 -0.8987 0.3791
vn 0.8434 -0.3634 0.3958
vn 0.4315 0.8552 0.2870
vn -0.2207 -0.8987 0.3791
vn -0.8434 -0.3634 0.3958
vn -0.4315 0.8552 0.2870
g Cube_Cube_Material
usemtl Material
s off
f 19/1/1 34/2/1 59/3/1 21/4/1
f 33/5/2 1/6/2 52/7/2 55/8/2
f 66/9/3 64/10/3 6/11/3 24/12/3
f 65/13/4 63/14/4 5/15/4 15/16/4
f 32/17/5 26/18/5 45/19/5 46/20/5
f 24/12/6 6/11/6 8/21/6 26/22/6
f 15/16/7 5/15/7 7/23/7 16/24/7
f 28/25/8 61/26/8 12/27/8 30/28/8
f 57/29/9 51/30/9 11/31/9 18/32/9
f 61/26/10 57/29/10 18/32/10 12/27/10
f 6/11/11 15/16/11 16/24/11 8/21/11
f 25/33/5 32/17/5 46/20/5 44/34/5
f 64/10/12 65/13/12 15/16/12 6/11/12
f 4/35/13 2/36/13 38/37/13 40/38/13
f 12/27/14 18/32/14 31/39/14 30/40/14
f 18/32/14 11/31/14 29/41/14 31/39/14
f 51/30/15 27/42/15 29/43/15 11/31/15
f 5/15/16 23/44/16 25/45/16 7/23/16
f 63/14/17 67/46/17 23/44/17 5/15/17
f 1/6/18 22/47/18 20/48/18 52/7/18
f 13/49/19 2/36/19 34/2/19 33/5/19
f 4/35/19 14/50/19 55/8/19 59/3/19
f 2/36/19 4/35/19 59/3/19 34/2/19
f 14/50/19 13/49/19 33/5/19 55/8/19
f 38/37/19 37/51/19 39/52/19 40/38/19
f 2/36/20 13/49/20 37/51/20 38/37/20
f 13/49/21 14/50/21 39/52/21 37/51/21
f 14/50/22 4/35/22 40/38/22 39/52/22
f 46/53/23 45/54/23 42/55/23 43/56/23
f 44/57/23 46/53/23 43/56/23 41/58/23
f 7/23/24 25/45/24 44/59/24 41/58/24
f 26/22/25 8/21/25 42/55/25 45/60/25
f 8/21/2 16/24/2 43/56/2 42/55/2
f 16/24/2 7/23/2 41/58/2 43/56/2
f 3/61/26 9/62/26 51/30/26 52/7/26
f 49/63/27 3/61/27 52/7/27 20/48/27
f 9/62/28 50/64/28 27/42/28 51/30/28
f 50/64/29 49/63/29 20/48/29 27/42/29
f 47/65/30 48/66/30 52/7/30 51/30/30
f 48/66/30 35/67/30 55/8/30 52/7/30
f 17/68/30 47/65/30 51/30/30 57/29/30
f 35/67/30 17/68/30 57/29/30 55/8/30
f 53/69/31 36/70/31 59/3/31 55/8/31
f 10/71/32 54/72/32 57/29/32 61/26/32
f 36/70/33 10/71/33 61/26/33 59/3/33
f 54/72/34 53/69/34 55/8/34 57/29/34
f 56/73/35 60/74/35 21/4/35 59/3/35
f 62/75/36 58/76/36 61/26/36 28/25/36
f 58/76/37 56/73/37 59/3/37 61/26/37
f 60/74/38 62/75/38 28/25/38 21/4/38
f 34/2/39 19/1/39 67/46/39 63/14/39
f 1/6/12 33/5/12 65/13/12 64/10/12
f 33/5/40 34/2/40 63/14/40 65/13/40
f 22/47/41 1/6/41 64/10/41 66/9/41
f 19/1/42 21/4/42 109/77/42 87/78/42
f 86/79/5 105/80/5 102/81/5 68/82/5
f 66/9/43 24/12/43 73/83/43 114/84/43
f 115/85/44 82/86/44 72/87/44 113/88/44
f 24/12/45 26/22/45 75/89/45 73/83/45
f 82/86/46 83/90/46 74/91/46 72/87/46
f 28/25/47 30/28/47 79/92/47 111/93/47
f 107/94/48 85/95/48 78/96/48 101/97/48
f 111/93/49 79/92/49 85/95/49 107/94/49
f 73/83/50 75/89/50 83/90/50 82/86/50
f 114/84/51 73/83/51 82/86/51 115/85/51
f 71/98/52 93/99/52 91/100/52 69/101/52
f 79/92/14 30/40/14 31/39/14 85/95/14
f 85/95/14 31/39/14 29/41/14 78/96/14
f 101/97/53 78/96/53 29/43/53 27/42/53
f 72/87/54 74/91/54 25/45/54 23/44/54
f 113/88/55 72/87/55 23/44/55 67/46/55
f 68/82/56 102/81/56 20/48/56 22/47/56
f 80/102/57 86/79/57 87/78/57 69/101/57
f 71/98/57 109/77/57 105/80/57 81/103/57
f 69/101/57 87/78/57 109/77/57 71/98/57
f 81/103/57 105/80/57 86/79/57 80/102/57
f 91/100/57 93/99/57 92/104/57 90/105/57
f 69/101/58 91/100/58 90/105/58 80/102/58
f 80/102/59 90/105/59 92/104/59 81/103/59
f 81/103/60 92/104/60 93/99/60 71/98/60
f 46/53/23 96/106/23 95/107/23 45/54/23
f 44/57/23 94/108/23 96/106/23 46/53/23
f 74/91/61 94/108/61 44/59/61 25/45/61
f 26/22/62 45/60/62 95/107/62 75/89/62
f 75/89/5 95/107/5 96/106/5 83/90/5
f 83/90/5 96/106/5 94/108/5 74/91/5
f 70/109/63 102/81/63 101/97/63 76/110/63
f 99/111/64 20/48/64 102/81/64 70/109/64
f 76/110/65 101/97/65 27/42/65 100/112/65
f 100/112/66 27/42/66 20/48/66 99/111/66
f 97/113/67 101/97/67 102/81/67 98/114/67
f 98/114/67 102/81/67 105/80/67 88/115/67
f 84/116/67 107/94/67 101/97/67 97/113/67
f 88/115/67 105/80/67 107/94/67 84/116/67
f 103/117/68 105/80/68 109/77/68 89/118/68
f 77/119/69 111/93/69 107/94/69 104/120/69
f 89/118/70 109/77/70 111/93/70 77/119/70
f 104/120/71 107/94/71 105/80/71 103/117/71
f 106/121/72 109/77/72 21/4/72 110/122/72
f 112/123/73 28/25/73 111/93/73 108/124/73
f 108/124/74 111/93/74 109/77/74 106/121/74
f 110/122/75 21/4/75 28/25/75 112/123/75
f 87/78/76 113/88/76 67/46/76 19/1/76
f 68/82/51 114/84/51 115/85/51 86/79/51
f 86/79/77 115/85/77 113/88/77 87/78/77
f 22/47/78 66/9/78 114/84/78 68/82/78
g Cube_Cube_Material.001
usemtl Material.001
f 60/74/79 56/73/79 58/76/79 62/75/79
f 35/67/30 48/66/30 47/65/30 17/68/30
f 36/70/80 53/69/80 54/72/80 10/71/80
f 3/61/81 49/63/81 50/64/81 9/62/81
f 110/122/82 112/123/82 108/124/82 106/121/82
f 88/115/67 84/116/67 97/113/67 98/114/67
f 89/118/83 77/119/83 104/120/83 103/117/83
f 70/109/84 76/110/84 100/112/84 99/111/84
